<svg xmlns="http://www.w3.org/2000/svg" enable-background="new 0 0 1364 960" viewBox="0 0 1364 960" width="550" height="550" xmlns:xlink="http://www.w3.org/1999/xlink"><path fill="#d3ccff" d="M1230.056,673.109h-99.118v-74.874h-202.76v-92.982l0.248-0.294l203.076-241.392h98.554v246.207h50.28
	v88.461h-50.28V673.109z M1133.048,670.998h94.897v-74.874h50.28v-84.24h-50.28V265.678h-95.462L930.289,506.023v90.102h202.76
	V670.998z M1133.048,511.885h-110.472l110.472-129.998V511.885z M1027.139,509.774h103.798V387.63L1027.139,509.774z" class="colorD3CCFF svgShape"></path><path fill="#ffd1f0" d="M1238.759,529.175c0.173-3.409,3.868-5.803,7.269-5.602c3.401,0.201,6.402,2.319,8.846,4.709
	c3.954,3.867,6.726,8.227,9.422,12.911c-0.498-5.105-0.81-10.226-0.96-15.34c-0.1-3.382-0.124-6.769-0.076-10.157
	c-7.666-0.44-15.188-3.218-21.285-7.888c-2.311-1.77-4.592-4.203-4.437-7.11c0.18-3.396,3.876-5.789,7.271-5.598
	c3.396,0.192,6.387,2.294,8.821,4.668c4.087,3.987,6.903,8.508,9.681,13.368c0.267-10.437,1.268-20.861,3.168-31.12
	c-7.374-1.692-14.234-5.588-19.436-11.085c-2.001-2.114-3.868-4.878-3.255-7.724c0.717-3.324,4.745-5.101,8.067-4.373
	c3.322,0.727,5.942,3.277,7.969,6.008c3.284,4.425,5.321,9.152,7.232,14.186c2.172-10.782,5.412-21.767,11.413-31.024
	c0.125-0.193,0.259-0.38,0.385-0.572c-7.154-2.709-13.477-7.588-17.89-13.84c-1.679-2.378-3.132-5.38-2.119-8.109
	c1.184-3.188,5.425-4.372,8.609-3.177c3.184,1.194,5.413,4.092,7.03,7.084c2.848,5.272,4.185,10.687,5.437,16.457
	c7.223-10.504,16.413-19.721,23.263-30.456c-7.305-2.68-13.772-7.614-18.26-13.974c-1.679-2.378-3.132-5.38-2.118-8.109
	c1.184-3.188,5.425-4.371,8.609-3.177c3.184,1.194,5.413,4.092,7.029,7.084c2.925,5.414,4.255,10.979,5.537,16.924
	c1.664-2.713,3.173-5.526,4.454-8.489c2.593-5.998,3.876-12.493,4.066-19.078c-7.938-0.611-15.667-3.738-21.78-8.842
	c-2.234-1.866-4.411-4.393-4.135-7.29c0.323-3.385,4.116-5.621,7.5-5.287c3.384,0.334,6.285,2.56,8.617,5.034
	c4.277,4.538,7.013,9.648,9.822,15.145c0.085-10.633-2.651-21.433-7.358-30.696c-7.081-1.428-13.754-4.867-18.995-9.841
	c-2.111-2.004-4.123-4.664-3.663-7.538c0.538-3.358,4.465-5.348,7.821-4.8c3.356,0.549,6.109,2.955,8.279,5.573
	c3.462,4.177,5.731,8.711,7.879,13.549c0.161,0.113,0.307,0.268,0.421,0.48c4.183,7.795,6.741,16.418,7.757,25.195
	c0.224,1.936,0.378,3.889,0.46,5.847c2.381-6.612,6.581-12.567,12.047-16.988c2.263-1.831,5.164-3.477,7.953-2.644
	c3.259,0.973,4.717,5.127,3.734,8.382c-0.984,3.256-3.729,5.669-6.609,7.479c-5.372,3.373-11.014,5.067-17.068,6.787
	c-0.01,4.113-0.403,8.221-1.376,12.212c-1.472,6.044-4.044,11.553-7.209,16.747c5.211-5.038,11.857-8.588,18.954-10.072
	c2.849-0.596,6.182-0.737,8.283,1.277c2.455,2.353,1.856,6.715-0.504,9.163c-2.36,2.447-5.905,3.342-9.293,3.637
	c-6.492,0.564-12.43-0.578-18.792-1.853c-5.467,8.415-12.361,16.055-18.452,23.896c-1.917,2.468-3.75,4.972-5.439,7.561
	c5.375-5.75,12.541-9.807,20.245-11.428c2.848-0.599,6.181-0.745,8.285,1.266c2.458,2.35,1.865,6.713-0.492,9.163
	c-2.357,2.451-5.901,3.35-9.289,3.649c-6.639,0.586-12.701-0.614-19.23-1.915c-1.77,2.78-3.361,5.668-4.683,8.738
	c-2.417,5.615-4.192,11.497-5.593,17.441c-0.373,1.581-0.715,3.168-1.038,4.761c4.356-5.655,10.297-10.086,16.978-12.606
	c2.723-1.028,5.994-1.68,8.38-0.014c2.789,1.947,2.869,6.349,0.914,9.131c-1.956,2.782-5.32,4.212-8.623,5.025
	c-6.101,1.502-11.938,1.357-18.158,1.094c-1.854,10.023-2.766,20.239-3.01,30.429c2.957-6.838,7.92-12.801,14.135-16.912
	c2.428-1.606,5.473-2.967,8.17-1.872c3.15,1.28,4.205,5.555,2.915,8.701c-1.29,3.147-4.253,5.287-7.293,6.812
	c-5.768,2.894-11.65,4.03-17.963,5.184c-0.021,1.351-0.035,2.702-0.035,4.051c0.004,7.405,0.343,14.837,1.093,22.226
	c2.982-6.615,7.85-12.376,13.904-16.38c2.428-1.606,5.473-2.967,8.169-1.872c3.15,1.28,4.205,5.555,2.915,8.702
	c-1.29,3.146-4.254,5.287-7.294,6.812c-5.61,2.814-11.326,3.967-17.442,5.089c0.956,8.412,2.46,16.758,4.636,24.929
	c0.453,1.702-2.218,2.288-2.67,0.589c-2.198-8.251-3.698-16.683-4.658-25.177c-7.701-0.45-15.266-3.26-21.401-7.978
	C1240.902,534.543,1238.612,532.093,1238.759,529.175z" class="colorFFD1F0 svgShape"></path><path fill="#d3ccff" d="M368.222,666.998h-99.118v-74.874H66.344v-92.982l0.248-0.294l203.076-241.392h98.554v246.207h50.28v88.461
	h-50.28V666.998z M271.214,664.887h94.897v-74.874h50.28v-84.239h-50.28V259.566H270.65L68.455,499.912v90.101h202.759V664.887z
	 M271.214,505.773H160.742l110.472-129.998V505.773z M165.305,503.663h103.798V381.519L165.305,503.663z" class="colorD3CCFF svgShape"></path><path fill="#ffd1f0" d="M204.076,409.498c-0.563-2.308-2.681-4.045-5.002-4.532c-2.321-0.487-4.776,0.142-6.828,1.332
	c-2.052,1.191-3.748,2.908-5.29,4.713c-2.551,2.987-4.792,6.398-5.794,10.163c-2.794-5.042-5.197-10.302-7.188-15.721
	c-0.181-0.493-0.353-0.989-0.527-1.484c3.951-1.143,7.901-2.285,11.852-3.428c2.636-0.762,5.343-1.56,7.505-3.252
	c2.161-1.692,3.675-4.514,3.024-7.183c-0.563-2.308-2.681-4.045-5.003-4.532c-2.321-0.487-4.776,0.141-6.828,1.332
	c-2.052,1.191-3.748,2.908-5.29,4.713c-2.631,3.081-4.935,6.614-5.886,10.52c-2.024-6.079-3.539-12.325-4.52-18.656
	c3.958-1.311,7.916-2.623,11.875-3.934c2.604-0.863,5.279-1.765,7.374-3.538c2.095-1.774,3.5-4.651,2.747-7.294
	c-0.651-2.284-2.834-3.94-5.173-4.337s-4.767,0.325-6.772,1.593c-2.005,1.268-3.634,3.05-5.106,4.912
	c-2.355,2.982-4.409,6.351-5.316,10.009c-0.605-4.595-0.935-9.226-0.97-13.862c-0.011-1.372,0.014-2.744,0.055-4.115
	c4.026-1.483,8.053-2.965,12.079-4.448c2.575-0.948,5.219-1.937,7.254-3.779c2.036-1.841,3.345-4.764,2.506-7.38
	c-0.725-2.262-2.962-3.844-5.312-4.164c-2.35-0.32-4.754,0.481-6.716,1.815c-1.962,1.334-3.532,3.168-4.942,5.078
	c-2.014,2.729-3.773,5.759-4.689,8.998c0.307-4.643,0.911-9.266,1.814-13.835c2.764-3.14,5.527-6.281,8.291-9.422
	c1.814-2.061,3.669-4.191,4.584-6.781c0.915-2.591,0.678-5.785-1.303-7.686c-1.713-1.644-4.431-1.97-6.65-1.131
	c-2.219,0.838-3.951,2.689-5.043,4.798c-1.092,2.109-1.601,4.47-1.933,6.822c-0.612,4.334-0.619,8.907,1.013,12.941
	c-0.004,0.015-0.01,0.027-0.013,0.043c-0.97,4.861-1.601,9.784-1.901,14.728c-0.997-3.387-2.95-6.51-5.168-9.295
	c-1.479-1.857-3.116-3.632-5.126-4.893c-2.01-1.261-4.442-1.974-6.778-1.568c-2.337,0.406-4.513,2.069-5.155,4.356
	c-0.742,2.645,0.675,5.518,2.777,7.284c2.102,1.766,4.781,2.657,7.389,3.51c3.972,1.3,7.944,2.599,11.916,3.898
	c-0.188,6.059,0.119,12.133,0.907,18.147c-1.802-3.25-4.599-5.95-7.589-8.21c-1.893-1.432-3.918-2.744-6.178-3.466
	c-2.259-0.722-4.792-0.808-6.955,0.166c-2.163,0.974-3.859,3.127-3.913,5.501c-0.063,2.747,2.021,5.177,4.495,6.365
	c2.474,1.188,5.29,1.386,8.027,1.564c4.168,0.271,8.335,0.542,12.503,0.813c0.029,0.188,0.055,0.378,0.085,0.566
	c0.995,6.178,2.494,12.271,4.467,18.204c-2.467-3.355-6.129-5.739-9.916-7.538c-2.143-1.018-4.392-1.893-6.75-2.142
	c-2.359-0.249-4.856,0.18-6.777,1.573c-1.921,1.393-3.147,3.845-2.72,6.182c0.494,2.703,3.026,4.66,5.689,5.322
	c2.663,0.662,5.46,0.284,8.177-0.097c4.269-0.598,8.539-1.196,12.808-1.795c0.029,0.082,0.059,0.164,0.088,0.247l-0.074,0.097
	c0.033-0.009,0.065-0.019,0.098-0.028c2.016,5.741,4.483,11.322,7.389,16.674c-3.222-1.899-7.021-2.834-10.767-3.293
	c-2.4-0.294-4.855-0.417-7.216,0.101c-2.361,0.518-4.639,1.735-6.051,3.697c-1.411,1.962-1.811,4.725-0.649,6.844
	c1.344,2.452,4.421,3.53,7.209,3.313c2.788-0.216,5.373-1.48,7.878-2.721c3.559-1.762,7.119-3.525,10.678-5.287
	c0.116-0.033,0.232-0.067,0.347-0.1c3.356,5.808,7.234,11.305,11.598,16.398c0.461,0.538,1.389-0.079,0.922-0.624
	c-4.291-5.007-8.106-10.402-11.417-16.093c3.748-1.084,7.496-2.168,11.244-3.252c2.635-0.762,5.343-1.56,7.504-3.252
	C203.213,414.989,204.727,412.168,204.076,409.498z" class="colorFFD1F0 svgShape"></path><path fill="#ffbde9" d="M87.761,494.233c4.808,1.13,12.341,2.202,24.926-0.19c7.717-1.495,18.424-3.504,30.168-10.781
	c0.507-0.315,1.404-0.861,2.529-1.65c0.058-0.033,0.124-0.073,0.175-0.115c0.108-0.059,0.216-0.134,0.332-0.2
	c0.385-0.257,0.788-0.543,1.235-0.809c8.397-5.937,25.118-19.772,25.611-38.116c0.045-1.055,0.301-14.398-6.24-17.028
	c-8.211-3.207-21.209,12.474-24.318,9.96c-1.567-1.282,1.238-5.491,2.707-11.41c3.426-13.268-0.453-31.825-11.667-36.444
	c-5.288-2.238-12.434-1.378-17.454,2.543c-8.229,6.28-5.033,21.067-6.285,21.196c-1.819,0.11,0.471-29.198-14.163-37.337
	c-5.149-2.832-12.815-3.287-16.633,0.149c-5.587,5.047-0.416,16.443-3.692,17.939c-3.473,1.586-8.611-11.28-22.899-16.929
	c-3.635-1.407-12.166-4.763-19.084-0.638c-6.03,3.514-9.182,11.341-7.876,17.941c1.24,6.086,5.957,9.567,7.281,10.482
	c8.494,6.086,15.852,1.321,32.243,6.29c5.723,1.714,11.798,4.398,11.539,6.405c-0.29,1.466-3.917,1.197-8.423,4.134
	c-0.099,0.052-0.247,0.131-0.425,0.276c-1.363,0.913-6.201,4.19-7.26,9.535c-0.077,0.218-1.1,6.042,2.31,8.891
	c1.733,1.502,3.955,1.557,4.923,1.617c9.662,0.441,21.5,3.916,21.471,5.494c0.018,1.809-15.554,0.952-17.569,6.652
	c-1.667,4.738,6.94,11.312,8.054,12.157c9.312,7.004,20.753,7.112,20.619,7.971c-0.144,0.725-9.072-1.643-17.503,2.569
	c-3.937,1.935-9.859,6.294-9.351,10.63C73.601,490.755,83.564,493.213,87.761,494.233z" class="colorFFBDE9 svgShape"></path><path fill="#ffffff" d="M92.138,460.518c0.746-2.007,3.083-2.54,5.008-2.505c2.427,0.044,4.802,0.723,7.039,1.626
	c4.707,1.899,9.037,4.967,14.126,5.8c2.572,0.421,5.241,0.237,7.59-0.947c-4.977-6.25-9.209-13.096-13.314-19.938
	c-1.536-2.56-3.068-5.134-4.631-7.692c-7.186-3.599-15.548-0.05-23.038-2.389c-1.993-0.622-3.807-1.668-5.228-3.208
	c-0.239-0.259,0.186-0.604,0.425-0.346c2.724,2.95,6.837,3.772,10.692,3.908c3.815,0.135,7.628-0.425,11.44-0.067
	c1.794,0.168,3.554,0.571,5.205,1.285c-4.236-6.895-8.728-13.644-14.231-19.598c-6.666-7.209-14.866-13.351-24.401-16.1
	c-1.197-0.34-2.406-0.627-3.622-0.853c-0.343-0.074-0.288-0.614,0.057-0.556c9.437,1.797,17.816,6.96,24.739,13.479
	c1.181,1.109,2.305,2.267,3.403,3.448c-0.01-0.061-0.008-0.126,0.036-0.192c2.705-4.042,0.648-8.978-1.415-12.787
	c-1.129-2.083-2.355-4.136-3.128-6.386c-0.643-1.869-1.072-3.974-0.248-5.856c0.141-0.322,0.655-0.131,0.514,0.192
	c-0.963,2.199-0.119,4.756,0.778,6.834c0.976,2.262,2.304,4.346,3.398,6.548c1.799,3.62,2.982,8.138,0.549,11.772
	c-0.078,0.117-0.193,0.121-0.294,0.083c6.166,6.677,11.133,14.374,15.831,22.141c2.604,4.305,5.163,8.652,7.84,12.918
	c4.73-3.668,7.942-9.355,8.803-15.262c0.471-3.227,0.063-6.327-0.807-9.451c-0.944-3.392-2.218-6.751-2.352-10.307
	c-0.132-3.51,1.025-7.261,4.086-9.272c0.292-0.191,0.641,0.231,0.346,0.425c-3.084,2.026-4.111,5.836-3.859,9.347
	c0.259,3.6,1.609,6.982,2.515,10.444c0.784,2.996,1.063,5.997,0.585,9.068c-0.444,2.854-1.423,5.611-2.812,8.141
	c-1.553,2.828-3.65,5.368-6.211,7.34c3.271,5.187,6.732,10.243,10.719,14.921c2.761,3.245,5.803,6.305,9.111,9.017
	c0.117-8.865,8.011-14.876,11.249-22.567c0.948-2.25,1.49-4.656,1.293-7.105c-0.029-0.349,0.513-0.437,0.542-0.084
	c0.725,9.002-7.176,15.328-10.753,22.793c-1.081,2.256-1.789,4.663-1.794,7.179c0,0.075-0.034,0.122-0.073,0.161
	c2.524,2.027,5.198,3.855,8.045,5.376c-0.115,0.066-0.224,0.14-0.332,0.2c-0.051,0.041-0.117,0.081-0.175,0.115
	c-4.851-2.622-9.264-6.095-13.203-10.026c-2.108-2.107-4.07-4.338-5.932-6.649c-3.937,2.053-8.572,1.311-12.536-0.258
	c-4.601-1.823-8.789-4.743-13.688-5.776c-2.259-0.476-6.349-0.948-7.374,1.808C92.528,461.041,92.015,460.848,92.138,460.518z" class="colorFFF svgShape"></path><path fill="#d3ccff" d="M667.362,689.426c-121.908,0-221.087-99.179-221.087-221.087S545.454,247.25,667.362,247.25
	c59.059,0,114.581,22.996,156.336,64.752c41.755,41.755,64.751,97.277,64.751,156.336
	C888.449,590.246,789.27,689.426,667.362,689.426z M667.362,249.361c-120.744,0-218.977,98.233-218.977,218.977
	c0,120.744,98.233,218.977,218.977,218.977c120.744,0,218.976-98.233,218.976-218.977
	C886.339,347.594,788.107,249.361,667.362,249.361z M667.362,617.765c-82.394,0-149.427-67.032-149.427-149.427
	s67.033-149.427,149.427-149.427s149.427,67.033,149.427,149.427S749.757,617.765,667.362,617.765z M667.362,321.022
	c-81.231,0-147.316,66.086-147.316,147.317c0,81.23,66.086,147.316,147.316,147.316c81.23,0,147.316-66.086,147.316-147.316
	C814.678,387.108,748.593,321.022,667.362,321.022z" class="colorD3CCFF svgShape"></path><path fill="#ffd1f0" d="M887.21,378.318c2.196-1.074,3.476-3.586,3.454-6.026c-0.022-2.44-1.194-4.769-2.843-6.57
	c-1.649-1.8-3.748-3.127-5.902-4.279c-3.564-1.906-7.486-3.408-11.491-3.585c4.452-3.918,9.211-7.492,14.218-10.686
	c0.455-0.291,0.916-0.573,1.375-0.857c2.018,3.719,4.037,7.438,6.055,11.157c1.347,2.481,2.745,5.027,4.921,6.827
	c2.177,1.8,5.346,2.7,7.886,1.458c2.195-1.074,3.476-3.586,3.454-6.026c-0.022-2.44-1.194-4.769-2.842-6.569
	c-1.649-1.8-3.748-3.127-5.902-4.279c-3.676-1.966-7.734-3.504-11.87-3.599c5.664-3.373,11.609-6.271,17.755-8.651
	c2.19,3.69,4.379,7.379,6.569,11.069c1.441,2.428,2.936,4.918,5.18,6.633c2.244,1.715,5.446,2.493,7.936,1.155
	c2.153-1.157,3.336-3.716,3.22-6.154c-0.115-2.438-1.376-4.72-3.093-6.456c-1.716-1.736-3.865-2.981-6.062-4.05
	c-3.516-1.711-7.354-3.033-11.23-3.139c4.485-1.62,9.067-2.971,13.719-4.028c1.377-0.313,2.761-0.59,4.149-0.851
	c2.377,3.72,4.754,7.441,7.131,11.161c1.52,2.379,3.096,4.819,5.396,6.459c2.299,1.641,5.525,2.313,7.97,0.894
	c2.113-1.227,3.211-3.824,3.016-6.256c-0.195-2.433-1.531-4.673-3.303-6.351c-1.773-1.678-3.962-2.853-6.192-3.849
	c-3.187-1.423-6.619-2.525-10.076-2.731c4.735-0.714,9.514-1.125,14.305-1.224c3.765,2.086,7.531,4.172,11.296,6.258
	c2.471,1.369,5.02,2.764,7.825,3.114c2.805,0.349,5.964-0.593,7.439-3.002c1.275-2.083,1.004-4.888-0.328-6.933
	c-1.331-2.046-3.573-3.379-5.933-4.013c-2.36-0.633-4.845-0.625-7.282-0.441c-4.491,0.34-9.089,1.339-12.784,3.869
	c-0.016-0.001-0.029-0.004-0.046-0.004c-5.099,0.096-10.187,0.546-15.222,1.333c3.184-1.747,5.894-4.399,8.204-7.241
	c1.541-1.896,2.965-3.932,3.789-6.23c0.825-2.298,1.006-4.899,0.083-7.158c-0.923-2.259-3.074-4.081-5.513-4.222
	c-2.822-0.163-5.397,1.893-6.709,4.395c-1.312,2.502-1.618,5.39-1.901,8.2c-0.431,4.279-0.862,8.557-1.293,12.835
	c-6.132,1.145-12.169,2.791-18.04,4.907c2.87-2.527,4.967-5.933,6.581-9.436c1.022-2.218,1.895-4.543,2.123-6.973
	c0.228-2.43-0.243-4.995-1.699-6.953c-1.456-1.959-3.993-3.19-6.391-2.722c-2.775,0.542-4.759,3.172-5.408,5.92
	c-0.649,2.749-0.228,5.622,0.196,8.413c0.646,4.249,1.291,8.497,1.936,12.746c-0.183,0.071-0.367,0.138-0.55,0.21
	c-5.991,2.36-11.784,5.209-17.314,8.498c2.829-3.218,4.419-7.424,5.392-11.626c0.551-2.378,0.936-4.831,0.666-7.256
	c-0.27-2.426-1.251-4.841-3.074-6.465c-1.823-1.624-4.557-2.316-6.812-1.372c-2.608,1.091-4.018,4.067-4.097,6.89
	c-0.079,2.822,0.916,5.55,1.898,8.197c1.542,4.159,3.083,8.319,4.624,12.478c-0.077,0.047-0.153,0.095-0.229,0.142l-0.114-0.053
	c0.017,0.031,0.034,0.062,0.05,0.092c-5.327,3.291-10.393,7-15.132,11.098c1.199-3.657,1.302-7.681,0.939-11.547
	c-0.233-2.477-0.65-4.972-1.69-7.231c-1.04-2.259-2.765-4.281-5.049-5.268c-2.283-0.986-5.148-0.78-7.022,0.855
	c-2.169,1.891-2.574,5.221-1.742,7.976c0.832,2.755,2.671,5.074,4.47,7.32c2.555,3.189,5.11,6.379,7.665,9.568
	c0.059,0.109,0.118,0.218,0.177,0.327c-5.098,4.651-9.77,9.76-13.927,15.269c-0.439,0.582,0.385,1.379,0.83,0.789
	c4.088-5.415,8.67-10.438,13.661-15.019c1.915,3.528,3.829,7.057,5.744,10.585c1.347,2.481,2.745,5.027,4.921,6.827
	C881.501,378.66,884.67,379.56,887.21,378.318z" class="colorFFD1F0 svgShape"></path><path fill="#ffbde9" d="M772.806,237.545c3.1,13.091,24.835,31.219,22.124,44.549c-15.773,0.618-12.809-22.128-20.52-32.08
	c-8.231-8.528-18.695,24.04-11.424,39.994c5.402,13.268,23.591,10.887,47.497,28.019c20.643,14.352,20.083,22.548,33.318,25.555
	c24.219,5.498,50.47-16.363,49.302-19.316c-0.472-1.193-5.155,1.24-16.37,0.838c-1.054,0.825-44.37-6.097-28.374-15.075
	c19.232-5.007,29.346,17.563,51.919,7.073c16.922-7.872,20.576-34.414,18.766-35.28c-5.22,12.938-41.002,16.081-53.96,8.12
	c-7.377-5.416-0.104-7.687,8.186-7.598c27.31-3.319,41.932-3.175,55.407-20.794c16.517-21.597-3.077-43.63-3.566-74.241
	c0,0-35.37-12.611-57.767-1.048c-21.556,11.129-6.273,33.642-13.268,48.522c-2.398,6.738-11.567,7.13-15.224,2.156
	c-7.87-7.383-6.534-21.56-5.457-31.772c1.792-16.918,6.278-22.358,3.448-24.733c-7.282-6.536-33.56,16.267-30.597,31.25
	c-4.099,17.751,23.227,42.309,12.698,59.217c-14.34-1.689-24.878-39.786-23.609-55.276c1.597-8.076,6.079-13.042,4.938-14.001
	C791.782,204.279,770.811,225.6,772.806,237.545z" class="colorFFBDE9 svgShape"></path><path fill="#ffffff" d="M770.993,268.16c-0.109,4.199,0.832,8.377,2.682,12.142c1.793,3.657,4.448,6.734,7.61,9.272
	c3.472,2.775,7.365,4.931,11.182,7.184c4.129,2.449,8.139,5.113,11.952,8.035c1.718,1.323,3.483,2.641,5.044,4.147
	c1.302,1.254,2.49,2.813,2.393,4.715c-0.001,0.021,0.015,0.03,0.014,0.052c-0.21,0.261-0.404,0.532-0.623,0.789
	c-0.719,0.864-1.463,1.715-2.243,2.535c0.14,0.078,0.264,0.168,0.394,0.263c1.394-1.495,2.716-3.073,3.934-4.719
	c0.013-0.004,0.026-0.007,0.031-0.016c0.692-0.545,1.514-0.952,2.34-1.271c0.774-0.304,1.676-0.602,2.515-0.46
	c1.251,0.22,2.429,0.919,3.509,1.563c1.075,0.653,2.145,1.334,3.192,2.036c7.374,4.935,14.114,10.892,22.097,14.868
	c6.563,3.263,14.055,5.226,21.361,3.658c0.294-0.063,0.171-0.521-0.137-0.454c-4.256,0.908-8.658,0.599-12.856-0.504
	c-8.215-2.16-15.216-7.104-21.979-12.068c-3.744-2.753-7.465-5.548-11.449-7.949c-1.467-0.881-3.185-1.913-4.955-1.568
	c-0.99,0.185-2.001,0.584-2.908,1.107c3.304-4.713,5.838-9.909,8.37-15.063c0.12-0.236,0.237-0.485,0.357-0.72c0,0,0,0,0.013-0.003
	c3.479-2.368,7.616-3.525,11.794-3.806c8.518-0.58,16.45,2.612,24.077,6.024c2.086,0.934,4.176,1.88,6.28,2.781
	c1.971,0.848,3.977,1.694,6.062,2.259c3.549,0.948,7.599,0.974,10.676-1.292c0.241-0.179,0.005-0.592-0.24-0.404
	c-3.869,2.854-8.906,1.9-13.091,0.327c-8.312-3.133-16.093-7.84-24.902-9.574c-6.763-1.331-14.329-0.848-20.275,2.881
	c2.383-4.826,4.858-9.643,8.073-13.984c1.763-2.371,3.753-4.529,5.888-6.541c0.017-0.012,0.038-0.011,0.061-0.031
	c0.014-0.025,0.036-0.045,0.054-0.078c1.941-1.817,3.991-3.52,6.097-5.148c3.507-2.709,7.138-5.25,10.677-7.919
	c4.506-1.201,9.253-1.241,13.881-0.969c8.306,0.481,16.686,2.441,25,1.023c7.398-1.268,15.086-6.05,16.616-13.891
	c0.06-0.301-0.396-0.415-0.456-0.113c-0.848,4.361-3.817,7.909-7.507,10.267c-7.141,4.558-15.954,4.054-24.026,3.173
	c-7.429-0.814-15.201-1.885-22.584-0.197c0.451-0.344,0.91-0.683,1.365-1.036c4.465-3.516,8.52-7.443,12.115-11.844
	c7.364-9.018,12.832-19.37,18.217-29.63c0.147-0.264-0.266-0.494-0.413-0.23c-0.656,1.257-1.312,2.513-1.977,3.766
	c-5.227,9.86-10.763,19.732-18.184,28.133c1.06-2.838,0.838-6.053,0.66-9.017c-0.225-3.714-0.326-8.041,2.53-10.863
	c0.217-0.215-0.12-0.542-0.336-0.328c-2.679,2.639-2.908,6.664-2.725,10.203c0.188,3.684,0.727,7.768-1.159,11.118
	c-0.009,0.016,0.007,0.026-0.002,0.042c0,0,0,0-0.005,0.009c-3.816,4.137-8.133,7.681-12.646,11.03
	c-4.324,3.205-8.752,6.266-12.864,9.751c-0.391,0.333-0.779,0.68-1.162,1.018c2.104-3.781,2.118-8.509,1.114-12.668
	c-1.162-4.809-3.863-9.069-6.45-13.222c-2.571-4.123-4.894-8.324-6.6-12.873c-3.276-8.764-4.528-18.25-3.617-27.561
	c0.038-0.303-0.444-0.29-0.47,0.009c-0.499,5.075-0.357,10.202,0.406,15.243c0.684,4.522,1.866,8.964,3.527,13.228
	c1.726,4.398,4.021,8.454,6.509,12.454c2.599,4.171,5.273,8.459,6.352,13.319c0.995,4.489,0.757,9.696-2.233,13.418
	c-3.116,2.958-5.883,6.219-8.221,9.858c-3.194,5.002-5.674,10.412-8.31,15.713c-0.232,0.455-0.459,0.902-0.685,1.348
	c0.008-3.261-0.952-6.508-2.405-9.415c-1.558-3.126-3.784-5.868-5.982-8.562c-2.288-2.786-4.532-5.592-6.523-8.602
	c-3.866-5.838-6.948-12.169-9.159-18.806c-0.097-0.292-0.56-0.16-0.458,0.124c1.218,3.64,2.684,7.202,4.403,10.624
	c1.544,3.075,3.282,6.053,5.203,8.896c1.978,2.916,4.184,5.636,6.411,8.356c2.222,2.729,4.45,5.525,5.954,8.73
	c1.396,2.971,2.269,6.279,2.064,9.581c0.003,0.013,0.017,0.009,0.012,0.018c-2.031,3.941-4.243,7.78-6.931,11.29
	c-0.103-1.679-1.105-3.123-2.28-4.296c-1.708-1.729-3.724-3.197-5.651-4.669c-3.74-2.838-7.643-5.442-11.686-7.832
	c-3.899-2.3-7.901-4.494-11.411-7.376c-3.191-2.619-5.8-5.801-7.516-9.556c-1.608-3.522-2.406-7.393-2.307-11.263
	C771.468,267.85,770.998,267.859,770.993,268.16z" class="colorFFF svgShape"></path><path fill="#afa3ff" d="M690.298,258.05c-121.514,0-220.032,98.502-220.032,220.032c0,121.513,98.518,220.032,220.032,220.032
	c121.53,0,220.032-98.519,220.032-220.032C910.33,356.551,811.829,258.05,690.298,258.05z M690.298,626.453
	c-81.944,0-148.372-66.427-148.372-148.371c0-81.945,66.427-148.372,148.372-148.372c81.944,0,148.371,66.427,148.371,148.372
	C838.67,560.026,772.242,626.453,690.298,626.453z" class="colorAFA3FF svgShape"></path><path fill="#9b8ef5" d="M683.077 329.887c-2.392-.114-4.799-.178-7.221-.178-81.944 0-148.371 66.427-148.371 148.372 0 81.944 66.427 148.371 148.371 148.371 2.422 0 4.829-.062 7.221-.177-78.589-3.766-141.15-68.672-141.15-148.195C541.927 398.558 604.488 333.654 683.077 329.887zM690.298 258.05c-2.417 0-4.821.052-7.221.13 118.187 3.811 212.812 100.789 212.812 219.901 0 119.097-94.625 216.09-212.812 219.901 2.4.077 4.804.131 7.221.131 121.53 0 220.031-98.519 220.031-220.032C910.33 356.551 811.828 258.05 690.298 258.05z" class="color9B8EF5 svgShape"></path><path fill="#f9cbcb" d="M923.975,472.846c0,0-3.308,3.79-8.591,9.624c-0.069,0.069-0.115,0.115-0.184,0.184
	c-1.378,1.516-2.917,3.169-4.547,4.915c-0.689,0.735-1.378,1.47-2.09,2.228c-8.315,8.82-19.087,19.753-30.043,29.515
	c-14.402,12.886-29.125,23.773-38.91,25.129c-0.16,0.022-0.298,0.046-0.458,0.046c-0.506,0.069-0.989,0.092-1.471,0.092
	c-0.207,0-0.39-0.023-0.597-0.023c-19.661-0.919-53.151-19.96-64.336-26.667c-2.389-1.401-3.767-2.274-3.767-2.274l3.354-74.949
	l68.356,52.806l52.99-24.462l2.802-1.286l7.074-3.261l0.827-0.391l10.75-4.939c0,0,6.569-9.141,17.893-12.978
	c11.392-3.881,18.834-10.52,21.453-7.303c2.665,3.193-14.654,12.61-10.474,13.482c10.52,2.091,33.42-5.076,42.148-3.904
	C997.889,449.993,959.072,476.844,923.975,472.846z" class="colorF9CBCB svgShape"></path><path fill="#6952ff" d="M917.521,485.733c-1.401,1.516-2.963,3.192-4.662,4.939l-2.137,2.159
	c-6.178,6.27-13.781,13.482-21.843,20.488c-17.572,15.298-37.348,29.63-49.269,31.124c-0.16,0.022-0.298,0.046-0.458,0.046
	c-0.506,0.069-0.989,0.092-1.471,0.092c-0.207,0-0.39-0.023-0.597-0.023c-19.661-0.919-53.151-19.96-64.336-26.667
	c-2.389-1.401-3.767-2.274-3.767-2.274l-1.217-82.575c6.798,2.619,46.466,38.129,72.926,60.432l50.67-27.724l2.688-1.447l6.914-3.79
	l2.595,3.951l11.829,18.007L917.521,485.733z" class="color6952FF svgShape"></path><polygon fill="#ffffff" points="912.867 490.678 910.716 492.829 891.365 465.749 894.038 464.296" class="colorFFF svgShape"></polygon><path fill="#5840f5" d="M888.879,513.318c-17.572,15.298-37.348,29.63-49.269,31.124c-0.16,0.022-0.298,0.046-0.458,0.046
	c-0.506,0.069-0.989,0.092-1.471,0.092c-0.207,0-0.39-0.023-0.597-0.023c-19.661-0.919-53.151-19.96-64.336-26.667
	c-0.138-0.322-0.207-0.483-0.207-0.483l-0.574-24.737c0,0,44.675,43.802,68.747,40.311c13.85-1.998,28.16-8.476,37.807-13.667
	C883.319,516.764,886.972,514.536,888.879,513.318z" class="color5840F5 svgShape"></path><path fill="#f9cbcb" d="M447.613,455.357c0,0,2.933,4.087,7.637,10.397c0.062,0.075,0.104,0.125,0.166,0.2
	c1.228,1.641,2.603,3.433,4.059,5.326c0.617,0.797,1.233,1.594,1.869,2.417c7.439,9.569,17.124,21.477,27.103,32.236
	c13.112,14.196,26.735,26.433,36.346,28.712c0.158,0.038,0.293,0.074,0.453,0.089c0.497,0.117,0.974,0.186,1.455,0.23
	c0.206,0.02,0.391,0.015,0.596,0.034c19.66,0.954,54.807-14.819,66.579-20.432c2.512-1.168,3.966-1.907,3.966-1.907l3.783-74.927
	l-73.064,46.072l-50.425-29.387l-2.667-1.547l-6.732-3.919l-0.787-0.467l-10.23-5.938c0,0-5.672-9.724-16.579-14.619
	c-10.973-4.947-17.75-12.262-20.663-9.309c-2.955,2.924,13.39,13.945,9.146,14.417c-10.67,1.081-32.787-8.229-41.587-7.893
	C376.205,425.583,412.295,456.001,447.613,455.357z" class="colorF9CBCB svgShape"></path><path fill="#6952ff" d="M452.814,468.798c1.25,1.642,2.646,3.46,4.172,5.359l1.921,2.352c5.555,6.829,12.438,14.731,19.798,22.471
	c16.038,16.898,34.363,33.045,46.088,35.664c0.158,0.038,0.293,0.074,0.453,0.089c0.497,0.117,0.974,0.186,1.455,0.23
	c0.206,0.02,0.391,0.015,0.596,0.034c19.66,0.954,54.807-14.819,66.579-20.432c2.512-1.168,3.966-1.907,3.966-1.907l9.463-82.16
	c-7.016,1.96-50.284,33.617-78.744,53.305l-47.806-32.413l-2.538-1.696l-6.522-4.429l-2.959,3.686l-13.487,16.802L452.814,468.798z" class="color6952FF svgShape"></path><polygon fill="#ffffff" points="456.977 474.164 458.913 476.509 480.75 451.391 478.227 449.691" class="colorFFF svgShape"></polygon><path fill="#5840f5" d="M478.705,498.981c16.038,16.898,34.363,33.045,46.088,35.664c0.158,0.038,0.293,0.074,0.453,0.089
	c0.497,0.117,0.974,0.186,1.455,0.23c0.206,0.02,0.391,0.015,0.596,0.034c19.66,0.954,54.807-14.819,66.579-20.432
	c0.168-0.307,0.251-0.461,0.251-0.461l2.922-24.571c0,0-48.635,39.358-72.265,33.596c-13.598-3.305-27.227-11.113-36.338-17.198
	C483.911,502.939,480.487,500.375,478.705,498.981z" class="color5840F5 svgShape"></path><path fill="#ffffff" d="M768.656,493.357v0.32c0,0.011,0,0.011,0,0.022v0.111c0,0.011,0,0.011,0,0.022
	c-0.099,37.207-3.735,83.475-6.575,114.063c-16.167,8.985-34.19,15.04-53.363,17.416c-6.034,0.752-12.177,1.138-18.41,1.138
	c-4.276,0-8.52-0.177-12.708-0.541c-23.217-1.978-44.909-9.316-63.817-20.786c-5.281-28.975-12.044-70.425-14.554-104.471v-0.067
	c-0.165-2.243-0.309-4.442-0.441-6.597v-0.177c-1.061-18.421-0.664-34.069,2.199-43.528c0-0.011,0-0.011,0-0.033
	c0-0.011,0-0.011,0.011-0.022c1.215-3.967,2.839-6.818,4.994-8.344c0.122-0.088,0.244-0.176,0.375-0.254
	c16.896-10.443,41.352-19.603,54.911-24.278c0.386-0.133,0.763-0.266,1.116-0.387c0.354-0.121,0.708-0.232,1.05-0.365
	c1.713-0.586,3.193-1.072,4.387-1.458c0.122-0.044,0.244-0.089,0.365-0.122c0.244-0.088,0.487-0.166,0.708-0.232
	c0.066-0.022,0.121-0.044,0.176-0.066c0.023-0.012,0.034-0.012,0.056-0.012c0.629-0.199,1.116-0.365,1.47-0.464
	c0.055-0.022,0.11-0.034,0.165-0.056c0.055-0.022,0.099-0.033,0.133-0.044c0.023-0.011,0.044-0.011,0.066-0.021
	c0.089-0.022,0.155-0.044,0.2-0.056c0.011-0.011,0.034-0.011,0.034-0.011c0.011-0.011,0.022-0.011,0.022-0.011h40.566
	c0,0,0.531,0.177,1.503,0.508c0.011,0,0.032,0,0.044,0.011c0.308,0.099,0.652,0.221,1.038,0.353
	c0.133,0.044,0.265,0.088,0.409,0.144c0.188,0.066,0.386,0.122,0.586,0.199c0.055,0.022,0.11,0.033,0.177,0.055
	c0.431,0.144,0.905,0.31,1.403,0.486c0.243,0.089,0.487,0.177,0.74,0.266c0.122,0.044,0.255,0.088,0.398,0.133
	c0.397,0.143,0.818,0.287,1.259,0.442c9.891,3.58,27.428,10.31,39.793,17.449c5.757,3.326,8.433,19.515,9.239,41.484
	c0.011,0.044,0.011,0.099,0.011,0.133c0,0.011,0,0.011,0,0.022c0,0.011,0,0.011,0,0.022v0.299c0,0.055,0,0.11,0.012,0.166
	C768.578,481.622,768.667,487.368,768.656,493.357z" class="colorFFF svgShape"></path><path fill="#333382" d="M719.343,416.641c-4.387,6.017-12.738,20.46-27.609,20.167c-17.795-0.35-25.266-13.253-30.457-19.455
	c6.064-2.112,9.945-3.307,9.945-3.307h40.563C711.786,414.046,714.727,415.01,719.343,416.641z" class="color333382 svgShape"></path><path fill="#6952ff" d="M772.656 601.41c-3.425 2.309-6.951 4.464-10.576 6.486-16.167 8.985-34.19 15.04-53.363 17.416-.232-71.84.928-139.037 4.023-199.727v-.022c.188-3.691.397-7.371.597-10.995v-.078h.011c1.503.376 4.011.984 7.26 1.835 12.2 3.194 34.4 9.57 47.152 16.708.011.011.022.011.032.022 0 .011.012.011.012.011 1.182.685 2.177 2.873 2.818 6.354.574 2.708.983 6.244 1.293 10.498v.188c0 .011 0 .011 0 .022v.033c.751 10.509.785 25.283.63 43.063v.011c-.023 5.536-.101 11.382-.155 17.46v.21c0 .011 0 .011 0 .034v.143c-.034 2.144-.055 4.321-.077 6.542v.011C772.06 542.654 771.838 571.407 772.656 601.41zM677.599 625.908c-23.217-1.978-44.909-9.316-63.817-20.786-4.431-2.674-8.708-5.58-12.818-8.708.099-29.594-3.26-57.728-5.857-82.426-.154-1.469-.31-2.917-.442-4.354 0-.011 0-.011 0-.022v-.033c-.618-5.879-1.171-11.526-1.58-16.963-1.425-17.791-1.58-33.052 1.635-44.843.685-2.652 1.558-5.084 2.642-7.349v-.022c.652-1.393 1.392-2.686 2.199-3.945 1.325-2.089 4.033-4.056 7.635-5.924.023-.011.044-.022.067-.033.011-.011.022-.011.033-.011h.022c13.383-6.884 39.02-12.122 53.253-14.708 5.945-.995 9.889-1.658 10.332-1.658 0 0 0 0 0 .011 0 0 0 0 0 .011.011.189.055 1.128.321 2.509.42 4.287.839 8.674 1.227 13.15v.033C677.047 483.279 678.296 550.555 677.599 625.908z" class="color6952FF svgShape"></path><path fill="#f9cbcb" d="M713.344,414.495c-1.036,1.342-2.097,1.992-3.135,3.213c-13.057,14.705-26.236,15.559-39.417-3.844
	l5.064-30.75l1.892-11.532l28.005-0.185L713.344,414.495z" class="colorF9CBCB svgShape"></path><path fill="#ebb0b0" d="M713.344 414.495c-1.036 1.342-2.097 1.992-3.135 3.213-1.16-4.576-5.553-19.891-11.655-27.702-4.94-6.284-16.108-7.138-22.697-6.893l1.892-11.532 28.005-.185L713.344 414.495zM745.949 320.705c-1.963 2.539-3.925 4.848-6.003 6.926l2.078-5.887.808-2.193c0 0 .463-.231 1.269-.346.346-.116.693-.231 1.154-.347.116 0 .347.115.462.231C746.181 319.436 746.297 320.128 745.949 320.705z" class="colorEBB0B0 svgShape"></path><path fill="#ebb0b0" d="M736.83,346.447h-0.116c-0.809,0.116-1.732,0.23-2.771,0.23h-0.692l6.695-19.046
	c2.078-2.078,4.04-4.387,6.003-6.926c0.347-0.577,0.232-1.27-0.231-1.616c-0.116-0.116-0.346-0.231-0.462-0.231
	c3.232-0.692,8.889-1.154,12.468,2.655C761.877,325.9,760.378,344.138,736.83,346.447z" class="colorEBB0B0 svgShape"></path><path fill="#f9cbcb" d="M741.563,317.818c0,13.239-4.294,25.944-11.337,36.048c-0.253,0.386-0.52,0.757-0.788,1.129v0.104
	c-9.346,12.823-23.076,21.249-37.742,21.249c-17.89,0-34.636-15.469-40.624-37.401c-1.619-5.661-2.541-11.783-2.541-18.128
	c0-31.055,14.533-59.094,42.467-59.094c5.617,0,11.025,1.01,16.078,2.897C727.12,272.082,741.563,293.107,741.563,317.818z" class="colorF9CBCB svgShape"></path><path fill="#ebb0b0" d="M731.295,350.508c10.877-31.724-6.914-53.808-13.637-59.074c-8.626-6.756-39.291,0.142-39.291,0.142
	l28.708-26.954c20.045,7.46,34.488,28.485,34.488,53.196c0,13.239-4.294,25.944-11.337,36.048
	C730.537,352.826,730.88,351.712,731.295,350.508z" class="colorEBB0B0 svgShape"></path><path fill="#fdeaea" d="M660.433 317.136c0-3.827 3.102-6.93 6.929-6.93 3.828 0 6.93 3.104 6.93 6.93 0 3.828-3.103 6.93-6.93 6.93C663.535 324.066 660.433 320.964 660.433 317.136zM705.815 317.136c0-3.827 3.102-6.93 6.93-6.93 3.826 0 6.93 3.104 6.93 6.93 0 3.828-3.104 6.93-6.93 6.93C708.917 324.066 705.815 320.964 705.815 317.136z" class="colorFDEAEA svgShape"></path><path fill="#0b2d50" d="M662.067 317.136c0-2.924 2.371-5.294 5.295-5.294 2.925 0 5.295 2.371 5.295 5.294 0 2.925-2.37 5.295-5.295 5.295C664.438 322.431 662.067 320.061 662.067 317.136zM707.45 317.035c0-2.925 2.371-5.295 5.296-5.295 2.924 0 5.295 2.371 5.295 5.295 0 2.924-2.371 5.294-5.295 5.294C709.821 322.329 707.45 319.958 707.45 317.035z" class="color0B2D50 svgShape"></path><path fill="#ffffff" d="M668.135 315.352c-.548-.548-.548-1.438 0-1.986.548-.548 1.437-.548 1.986 0 .548.548.548 1.438 0 1.986C669.572 315.9 668.682 315.9 668.135 315.352zM713.299 315.352c-.548-.548-.548-1.438 0-1.986.55-.548 1.438-.548 1.986 0 .548.548.548 1.438 0 1.986C714.737 315.9 713.849 315.9 713.299 315.352z" class="colorFFF svgShape"></path><path fill="#0b2d50" d="M680.1 304.385c-.327-.769-1.389-1.313-2.185-.883-3.648 1.97-8.211 1.464-11.092-1.619-.614-.657-1.579-.886-2.338-.299-.661.511-.917 1.677-.299 2.337 3.843 4.113 10.003 5.365 15.032 2.649C680.008 306.144 680.475 305.268 680.1 304.385zM719.325 302.804c-.52-.654-1.689-.895-2.342-.268-2.991 2.871-7.524 3.6-11.122 1.396-.767-.47-1.758-.433-2.333.335-.501.669-.436 1.861.335 2.333 4.8 2.94 11.071 2.504 15.194-1.454C719.705 304.523 719.922 303.555 719.325 302.804z" class="color0B2D50 svgShape"></path><path fill="#ffb3b3" d="M655.271 329.965c0-1.913 3.043-3.463 6.796-3.463 3.754 0 6.796 1.55 6.796 3.463 0 1.912-3.043 3.463-6.796 3.463C658.314 333.428 655.271 331.877 655.271 329.965zM712.879 329.965c0-1.913 3.043-3.463 6.796-3.463 3.754 0 6.796 1.55 6.796 3.463 0 1.912-3.043 3.463-6.796 3.463C715.922 333.428 712.879 331.877 712.879 329.965z" class="colorFFB3B3 svgShape"></path><path fill="#f5a7a7" d="M708.01,348.861c-0.053-1.379-0.512-2.803-1.339-3.915c-0.431-0.579-0.917-1.105-1.503-1.528
	c-0.719-0.52-1.427-0.881-2.274-1.158c-0.382-0.125-0.929,0.011-1.256,0.219c-0.345,0.219-0.661,0.634-0.734,1.043
	c-0.075,0.425-0.035,0.892,0.219,1.256c0.23,0.331,0.517,0.526,0.875,0.668c0.199,0.076,0.39,0.164,0.578,0.261
	c-3.636,3.45-8.614,5.159-13.628,4.773c-0.898-0.069-1.623,0.928-1.583,1.747c0.048,0.992,0.845,1.514,1.746,1.583
	c5.636,0.434,11.327-1.634,15.495-5.416c0.005,0.021,0.01,0.041,0.015,0.062c0.025,0.189,0.051,0.378,0.058,0.569
	c0.033,0.871,0.857,1.666,1.746,1.583C707.333,350.523,708.045,349.795,708.01,348.861z" class="colorF5A7A7 svgShape"></path><path fill="#333382" d="M643.92,236.628c-8.513,8.672-11.902,48.055,10.771,56.071c19.125,6.762,44.767-14.307,63.602-6.333
	c12.553,5.316,22.444,26.461,18.304,52.575c0,0,26.534-24.624,21.774-56.262c-3.276-21.774-16.009-31.889-35.14-30.124
	c-26.326-15.541-39.664,5.773-58.51,5.365C649.057,257.583,646.326,247.419,643.92,236.628z" class="color333382 svgShape"></path><path fill="#ffb3b3" d="M687.322,328.627c0-0.004,0.016-0.182,0.017-0.251c0.013-0.055,0.028-0.118,0.032-0.132
	c0.031-0.113,0.069-0.224,0.111-0.334c0.013-0.027,0.032-0.068,0.05-0.103c0.051-0.097,0.101-0.195,0.154-0.292
	c0.12-0.22,0.25-0.434,0.378-0.649c0.26-0.437,0.52-0.874,0.78-1.312c0.551-0.926,1.102-1.852,1.652-2.778
	c0.446-0.75,0.194-1.862-0.598-2.28c-0.804-0.425-1.804-0.203-2.28,0.598c-0.643,1.08-1.285,2.161-1.928,3.241
	c-0.628,1.055-1.412,2.158-1.612,3.395c-0.218,1.349,0.091,2.716,1.157,3.64c0.844,0.731,1.909,1.076,2.983,1.307
	c0.85,0.183,1.842-0.252,2.05-1.164c0.191-0.839-0.253-1.854-1.164-2.05c-0.351-0.075-0.701-0.157-1.043-0.268
	c-0.079-0.026-0.157-0.056-0.236-0.083c-0.004-0.002-0.004-0.002-0.008-0.004c-0.072-0.039-0.146-0.075-0.216-0.116
	c-0.01-0.006-0.09-0.062-0.144-0.099c-0.018-0.016-0.034-0.031-0.042-0.038c-0.021-0.02-0.039-0.041-0.058-0.062
	c-0.014-0.026-0.026-0.052-0.038-0.076c-0.001-0.004-0.002-0.006-0.003-0.011C687.319,328.685,687.322,328.663,687.322,328.627z" class="colorFFB3B3 svgShape"></path><path fill="#afa3ff" d="M289.877,611.612H87.118V520.07l202.759-241.016h97.008v246.207h50.28v86.35h-50.28v74.874h-97.008V611.612z
	 M289.877,525.262V399.191L182.742,525.262H289.877z" class="colorAFA3FF svgShape"></path><rect width="20.866" height="86.35" x="416.299" y="525.262" fill="#9b8ef5" class="color9B8EF5 svgShape"></rect><rect width="20.866" height="246.207" x="366.019" y="279.055" fill="#9b8ef5" class="color9B8EF5 svgShape"></rect><polygon fill="#9b8ef5" points="182.742 525.262 289.877 402.158 289.877 377.604 161.876 525.262" class="color9B8EF5 svgShape"></polygon><rect width="20.866" height="74.874" x="366.019" y="611.612" fill="#9b8ef5" class="color9B8EF5 svgShape"></rect><path fill="#afa3ff" d="M1153.856,611.612h-202.76V520.07l202.76-241.016h97.008v246.207h50.28v86.35h-50.28v74.874h-97.008V611.612
	z M1153.856,525.262V399.191l-107.135,126.071H1153.856z" class="colorAFA3FF svgShape"></path><rect width="20.866" height="86.35" x="1280.278" y="525.262" fill="#9b8ef5" class="color9B8EF5 svgShape"></rect><rect width="20.866" height="246.207" x="1229.998" y="279.055" fill="#9b8ef5" class="color9B8EF5 svgShape"></rect><polygon fill="#9b8ef5" points="1046.721 525.262 1153.856 402.158 1153.856 377.604 1025.855 525.262" class="color9B8EF5 svgShape"></polygon><rect width="20.866" height="74.874" x="1229.998" y="611.612" fill="#9b8ef5" class="color9B8EF5 svgShape"></rect><path fill="#d2ccff" d="M163.798 151.817c0-7.866 2.191-13.991 6.574-18.374 4.382-4.382 10.485-6.573 18.308-6.573 8.02 0 14.199 2.153 18.538 6.459 4.338 4.305 6.508 10.336 6.508 18.093 0 5.632-.948 10.25-2.843 13.854-1.896 3.604-4.634 6.409-8.217 8.414-3.583 2.005-8.048 3.007-13.394 3.007-5.435 0-9.932-.865-13.492-2.597-3.562-1.731-6.448-4.47-8.661-8.217C164.905 162.137 163.798 157.448 163.798 151.817zM178.688 151.882c0 4.864.904 8.36 2.712 10.485 1.807 2.126 4.267 3.188 7.379 3.188 3.199 0 5.675-1.041 7.428-3.123 1.753-2.081 2.629-5.818 2.629-11.208 0-4.536-.915-7.85-2.745-9.943-1.83-2.092-4.311-3.139-7.444-3.139-3.003 0-5.412 1.063-7.231 3.188C179.597 143.457 178.688 146.974 178.688 151.882zM219.214 158.522c0-5.325 1.797-9.713 5.391-13.164 3.593-3.451 8.447-5.177 14.561-5.177 6.99 0 12.27 2.027 15.842 6.081 2.871 3.265 4.306 7.286 4.306 12.063 0 5.369-1.781 9.768-5.341 13.196-3.561 3.43-8.486 5.144-14.774 5.144-5.61 0-10.145-1.424-13.608-4.272C221.339 168.864 219.214 164.241 219.214 158.522zM232.624 158.489c0 3.111.63 5.412 1.89 6.902 1.26 1.491 2.843 2.235 4.749 2.235 1.928 0 3.512-.734 4.749-2.202 1.238-1.468 1.857-3.824 1.857-7.066 0-3.024-.625-5.275-1.874-6.754-1.249-1.479-2.793-2.219-4.634-2.219-1.95 0-3.561.751-4.831 2.252C233.259 153.137 232.624 155.421 232.624 158.489zM265.821 189.154V140.97h12.523v5.16c1.731-2.169 3.319-3.637 4.766-4.405 1.95-1.03 4.109-1.545 6.475-1.545 4.667 0 8.277 1.786 10.83 5.358 2.552 3.572 3.829 7.987 3.829 13.246 0 5.807-1.392 10.238-4.174 13.295-2.783 3.057-6.3 4.585-10.551 4.585-2.06 0-3.939-.35-5.637-1.051-1.698-.702-3.216-1.742-4.552-3.122v16.664H265.821zM279.231 158.522c0 2.761.581 4.81 1.742 6.146 1.161 1.337 2.629 2.005 4.404 2.005 1.555 0 2.86-.641 3.912-1.923 1.051-1.282 1.577-3.456 1.577-6.525 0-2.826-.548-4.902-1.643-6.229-1.096-1.325-2.433-1.988-4.01-1.988-1.709 0-3.134.669-4.272 2.005C279.801 153.35 279.231 155.52 279.231 158.522zM308.287 166.18l13.279-1.249c.548 1.578 1.314 2.707 2.301 3.386.986.679 2.3 1.019 3.944 1.019 1.796 0 3.188-.382 4.174-1.149.767-.569 1.15-1.28 1.15-2.133 0-.963-.505-1.707-1.513-2.232-.723-.371-2.641-.831-5.751-1.378-4.646-.81-7.872-1.559-9.68-2.249-1.807-.689-3.331-1.855-4.569-3.497-1.238-1.641-1.857-3.513-1.857-5.615 0-2.299.668-4.279 2.005-5.944 1.336-1.664 3.177-2.906 5.522-3.727 2.345-.821 5.489-1.232 9.433-1.232 4.163 0 7.236.318 9.219.953 1.983.636 3.637 1.622 4.963 2.959 1.326 1.337 2.427 3.144 3.303 5.423l-12.687 1.249c-.329-1.118-.877-1.94-1.643-2.466-1.052-.701-2.323-1.051-3.813-1.051-1.512 0-2.613.268-3.303.804-.69.536-1.035 1.187-1.035 1.953 0 .854.438 1.499 1.314 1.936.876.438 2.782.831 5.719 1.182 4.448.504 7.757 1.204 9.926 2.102 2.169.897 3.829 2.178 4.979 3.841 1.15 1.664 1.726 3.492 1.726 5.483 0 2.014-.608 3.973-1.825 5.878-1.216 1.904-3.134 3.42-5.752 4.547-2.618 1.127-6.184 1.69-10.698 1.69-6.376 0-10.918-.909-13.624-2.728C310.79 172.118 309.054 169.532 308.287 166.18zM374.253 127.691h14.297v10.978l-2.76 22.054h-8.842l-2.695-22.054V127.691zM374.746 164.076h13.344v11.8h-13.344V164.076z" class="colorD2CCFF svgShape"></path><path fill="#afa3ff" d="M442.532 738.364h77.161v19.894h-48.305v14.809h44.809v19.004h-44.809v18.368h49.703v21.102h-78.559V738.364zM536.98 831.542v-93.177h47.987c8.899 0 15.699.763 20.403 2.288 4.704 1.525 8.495 4.354 11.377 8.485 2.881 4.131 4.322 9.164 4.322 15.095 0 5.17-1.102 9.629-3.308 13.379-2.205 3.75-5.236 6.791-9.094 9.121-2.459 1.484-5.83 2.712-10.112 3.687 3.429 1.146 5.928 2.291 7.495 3.435 1.058.764 2.593 2.396 4.605 4.899 2.011 2.503 3.356 4.432 4.033 5.789l13.943 27h-32.533l-15.39-28.475c-1.949-3.687-3.686-6.08-5.211-7.182-2.077-1.44-4.429-2.161-7.055-2.161H565.9v37.818H536.98zM565.9 776.118h12.14c1.313 0 3.855-.423 7.627-1.271 1.907-.381 3.464-1.356 4.672-2.924 1.208-1.567 1.811-3.369 1.811-5.402 0-3.009-.953-5.317-2.86-6.928-1.907-1.61-5.488-2.416-10.741-2.416H565.9V776.118zM638.23 831.542v-93.177h47.987c8.899 0 15.699.763 20.403 2.288 4.704 1.525 8.495 4.354 11.377 8.485 2.881 4.131 4.322 9.164 4.322 15.095 0 5.17-1.102 9.629-3.308 13.379-2.205 3.75-5.236 6.791-9.094 9.121-2.459 1.484-5.83 2.712-10.112 3.687 3.429 1.146 5.928 2.291 7.495 3.435 1.058.764 2.593 2.396 4.605 4.899 2.011 2.503 3.356 4.432 4.033 5.789l13.943 27h-32.533l-15.39-28.475c-1.949-3.687-3.686-6.08-5.211-7.182-2.077-1.44-4.429-2.161-7.055-2.161h-2.542v37.818H638.23zM667.149 776.118h12.14c1.313 0 3.855-.423 7.627-1.271 1.907-.381 3.464-1.356 4.672-2.924 1.208-1.567 1.811-3.369 1.811-5.402 0-3.009-.953-5.317-2.86-6.928-1.907-1.61-5.488-2.416-10.741-2.416h-12.649V776.118zM733.251 785.016c0-15.211 4.237-27.054 12.712-35.529 8.474-8.474 20.275-12.712 35.402-12.712 15.508 0 27.458 4.163 35.848 12.489 8.39 8.326 12.585 19.99 12.585 34.989 0 10.891-1.833 19.821-5.498 26.79-3.665 6.971-8.961 12.394-15.889 16.271-6.928 3.877-15.563 5.815-25.901 5.815-10.509 0-19.206-1.673-26.091-5.021-6.887-3.347-12.469-8.644-16.748-15.89C735.39 804.974 733.251 795.907 733.251 785.016zM762.043 785.144c0 9.407 1.748 16.166 5.244 20.275 3.496 4.111 8.252 6.165 14.269 6.165 6.186 0 10.974-2.012 14.364-6.038 3.389-4.025 5.084-11.25 5.084-21.674 0-8.771-1.77-15.179-5.307-19.226-3.539-4.046-8.337-6.07-14.396-6.07-5.805 0-10.466 2.055-13.983 6.165C763.801 768.851 762.043 775.652 762.043 785.144zM845.687 831.542v-93.177h47.987c8.899 0 15.699.763 20.403 2.288 4.704 1.525 8.495 4.354 11.377 8.485 2.881 4.131 4.322 9.164 4.322 15.095 0 5.17-1.102 9.629-3.308 13.379-2.205 3.75-5.236 6.791-9.094 9.121-2.459 1.484-5.83 2.712-10.112 3.687 3.429 1.146 5.928 2.291 7.495 3.435 1.058.764 2.593 2.396 4.605 4.899 2.011 2.503 3.356 4.432 4.033 5.789l13.943 27h-32.533l-15.39-28.475c-1.949-3.687-3.686-6.08-5.211-7.182-2.077-1.44-4.429-2.161-7.055-2.161h-2.543v37.818H845.687zM874.606 776.118h12.14c1.313 0 3.855-.423 7.627-1.271 1.907-.381 3.464-1.356 4.672-2.924 1.208-1.567 1.811-3.369 1.811-5.402 0-3.009-.953-5.317-2.86-6.928-1.907-1.61-5.488-2.416-10.741-2.416h-12.649V776.118z" class="colorAFA3FF svgShape"></path><path fill="#ffbde9" d="M1036.115,179.089c-0.35,0-0.7-0.133-0.968-0.401c-0.535-0.535-0.535-1.401,0-1.936l7.14-7.14
	c1.944-1.944,5.109-1.945,7.053,0l5.951,5.95c0.878,0.877,2.304,0.877,3.182,0l6.04-6.04c1.945-1.945,5.109-1.944,7.053,0
	l6.069,6.069c0.878,0.877,2.305,0.877,3.182,0l5.772-5.772c1.945-1.945,5.109-1.944,7.052,0l4.88,4.879
	c0.878,0.877,2.304,0.877,3.182,0l3.678-3.767c3.202-3.202,7.442-3.085,10.813,0.286l0.108,0.122l4.284,5.445
	c0.467,0.594,0.365,1.454-0.229,1.922c-0.594,0.467-1.455,0.364-1.922-0.229l-4.232-5.378c-1.368-1.344-4.03-3.088-6.876-0.242
	l-3.678,3.767c-1.955,1.956-5.119,1.957-7.064,0.012l-4.88-4.879c-0.878-0.877-2.304-0.877-3.182,0l-5.772,5.772
	c-1.944,1.945-5.109,1.944-7.053,0l-6.069-6.069c-0.878-0.878-2.305-0.877-3.182,0l-6.04,6.04c-1.945,1.944-5.109,1.944-7.052,0
	l-5.951-5.95c-0.877-0.877-2.304-0.878-3.182,0l-7.14,7.14C1036.815,178.956,1036.465,179.089,1036.115,179.089z" class="colorFFBDE9 svgShape"></path><path fill="#afa3ff" d="M1001.092,156.411c-0.35,0-0.7-0.134-0.968-0.401c-0.535-0.534-0.535-1.401,0-1.935l7.141-7.14
	c0.942-0.942,2.194-1.461,3.526-1.461c1.332,0,2.585,0.519,3.527,1.461l5.95,5.95c0.878,0.877,2.305,0.878,3.182,0l6.039-6.04
	c1.944-1.944,5.109-1.945,7.053,0l6.069,6.069c0.878,0.877,2.304,0.877,3.182,0l5.772-5.772c1.945-1.945,5.109-1.944,7.053,0
	l4.879,4.879c0.878,0.877,2.305,0.877,3.182,0l3.678-3.767c1.626-1.626,3.518-2.427,5.479-2.333
	c1.867,0.091,3.712,0.996,5.334,2.619l0.108,0.121l4.284,5.445c0.467,0.594,0.365,1.454-0.229,1.922
	c-0.594,0.467-1.455,0.365-1.922-0.229l-4.232-5.378c-1.117-1.099-2.318-1.708-3.476-1.765c-1.178-0.055-2.33,0.455-3.399,1.523
	l-3.678,3.767c-1.955,1.957-5.12,1.956-7.064,0.011l-4.879-4.879c-0.425-0.425-0.99-0.659-1.591-0.659
	c-0.601,0-1.166,0.234-1.591,0.659l-5.772,5.772c-1.945,1.944-5.109,1.944-7.053,0l-6.069-6.069
	c-0.425-0.425-0.99-0.659-1.592-0.659c-0.601,0-1.166,0.234-1.591,0.659l-6.039,6.04c-0.942,0.942-2.194,1.461-3.527,1.461
	c-1.332,0-2.584-0.519-3.526-1.461l-5.951-5.95c-0.425-0.425-0.99-0.659-1.591-0.659c-0.601,0-1.166,0.234-1.591,0.659l-7.141,7.141
	C1001.792,156.278,1001.442,156.411,1001.092,156.411z" class="colorAFA3FF svgShape"></path><path fill="#ffbde9" d="M136.556,704.166c-0.35,0-0.7-0.134-0.968-0.401c-0.535-0.535-0.535-1.401,0-1.935l7.14-7.141
	c1.944-1.944,5.109-1.945,7.053,0l5.951,5.95c0.878,0.877,2.304,0.877,3.182,0l6.04-6.04c1.945-1.945,5.11-1.944,7.053,0
	l6.069,6.069c0.878,0.877,2.305,0.877,3.182,0l5.772-5.772c1.945-1.945,5.109-1.944,7.053,0l4.88,4.879
	c0.878,0.877,2.304,0.877,3.182,0l3.678-3.767c3.202-3.202,7.442-3.085,10.813,0.286l0.108,0.122l4.284,5.445
	c0.467,0.594,0.365,1.454-0.229,1.922c-0.594,0.466-1.455,0.364-1.922-0.229l-4.232-5.378c-1.368-1.344-4.03-3.088-6.875-0.242
	l-3.678,3.767c-1.955,1.956-5.119,1.957-7.064,0.012l-4.88-4.879c-0.878-0.877-2.304-0.877-3.182,0l-5.772,5.772
	c-1.944,1.945-5.109,1.944-7.053,0l-6.069-6.069c-0.878-0.878-2.305-0.877-3.182,0l-6.04,6.04c-1.945,1.944-5.109,1.944-7.052,0
	l-5.951-5.95c-0.877-0.877-2.304-0.878-3.182,0l-7.14,7.141C137.256,704.033,136.906,704.166,136.556,704.166z" class="colorFFBDE9 svgShape"></path><path fill="#afa3ff" d="M101.533,681.488c-0.35,0-0.7-0.134-0.968-0.401c-0.535-0.534-0.535-1.401,0-1.935l7.14-7.14
	c0.942-0.942,2.194-1.461,3.526-1.461c1.333,0,2.585,0.519,3.527,1.461l5.95,5.95c0.878,0.877,2.305,0.878,3.182,0l6.039-6.04
	c1.944-1.944,5.109-1.945,7.053,0l6.07,6.069c0.878,0.877,2.304,0.877,3.182,0l5.772-5.772c1.945-1.945,5.109-1.944,7.053,0
	l4.879,4.879c0.878,0.877,2.305,0.877,3.182,0l3.678-3.767c1.626-1.626,3.518-2.427,5.479-2.333
	c1.868,0.091,3.712,0.996,5.334,2.618l0.108,0.121l4.284,5.445c0.467,0.594,0.365,1.454-0.229,1.922
	c-0.594,0.467-1.455,0.364-1.922-0.229l-4.232-5.378c-1.117-1.099-2.318-1.708-3.476-1.765c-1.178-0.055-2.331,0.455-3.399,1.523
	l-3.678,3.767c-1.955,1.957-5.12,1.956-7.064,0.012l-4.879-4.879c-0.425-0.425-0.99-0.659-1.591-0.659
	c-0.602,0-1.166,0.234-1.591,0.659l-5.772,5.772c-1.945,1.944-5.109,1.944-7.052,0l-6.07-6.069c-0.425-0.425-0.99-0.659-1.591-0.659
	c-0.601,0-1.166,0.234-1.591,0.659l-6.039,6.04c-0.942,0.942-2.194,1.461-3.527,1.461c-1.332,0-2.584-0.519-3.526-1.461l-5.951-5.95
	c-0.425-0.425-0.99-0.659-1.591-0.659c-0.601,0-1.166,0.234-1.591,0.659l-7.141,7.141
	C102.233,681.354,101.883,681.488,101.533,681.488z" class="colorAFA3FF svgShape"></path><path fill="#d3ccff" d="M556.375 215.497c-3.646 7.293-10.338 12.883-18.248 14.965-4.258 1.121-8.79 1.198-13.093.272-4.501-.969-8.465-2.991-12.123-5.754-3.636-2.746-7.207-5.621-11.854-6.337-.724-.112-1.456-.164-2.189-.189-3.736-7.495-11.689-11.941-20.03-12.205-.883-.028-1.774.007-2.66.086-2.677-2.633-6.198-4.454-9.721-5.596-4.367-1.416-9.319-1.746-13.654-.039-3.895 1.534-7.063 4.702-8.457 8.668-.675 1.922-.769 3.938-.423 5.933.155.9 1.26 1.405 2.079 1.181.951-.262 1.337-1.176 1.18-2.079-.57-3.294 1.184-6.507 3.605-8.624 2.843-2.486 6.761-3.122 10.416-2.75 3.492.355 7.624 1.778 10.835 4.138-1.752.565-3.409 1.394-4.857 2.569-2.984 2.422-4.366 6.209-3.757 9.988.611 3.79 3.659 6.7 7.543 6.832 4.058.137 7.703-2.583 9.104-6.304 1.327-3.526.572-7.44-1.294-10.621.413.012.824.034 1.231.068 6.122.506 12.019 3.777 15.172 9.01-2.497.431-4.896 1.383-6.936 2.932-3.37 2.558-5.803 6.679-5.005 11.02.699 3.804 4.009 7.222 7.989 7.339 4.384.129 7.585-3.684 8.89-7.5 1.143-3.344 1.057-7.114.095-10.537 2.057.314 4.045 1.07 5.866 2.206 3.387 2.113 6.275 4.916 9.814 6.802 6.964 3.71 15.312 4.764 22.964 2.796 7.094-1.825 13.356-6.228 17.702-12.09 1.044-1.408 1.951-2.905 2.734-4.473C560.264 215.263 557.349 213.549 556.375 215.497zM472.305 223.064c-2.814.608-5.108-1.241-5.577-3.984-.501-2.926.938-5.719 3.367-7.321 1.47-.97 3.123-1.556 4.837-1.863 1.42 1.765 2.333 3.842 2.409 6.208C477.447 219.384 475.62 222.348 472.305 223.064zM496.606 232.264c-1.13 2.612-3.892 5.45-6.954 3.944-2.921-1.436-3.844-5.025-2.63-7.892 1.398-3.302 4.736-5.408 8.118-6.186.508-.117 1.017-.199 1.524-.255.009.026.021.049.029.075C497.786 225.222 498.001 229.039 496.606 232.264zM880.519 680.762c3.646-7.293 10.338-12.883 18.248-14.965 4.258-1.121 8.79-1.198 13.093-.272 4.501.969 8.465 2.992 12.123 5.754 3.636 2.746 7.207 5.621 11.854 6.337.724.112 1.456.164 2.189.189 3.736 7.495 11.689 11.941 20.03 12.205.883.028 1.774-.007 2.66-.086 2.677 2.633 6.198 4.454 9.721 5.596 4.367 1.416 9.319 1.746 13.654.039 3.895-1.534 7.063-4.703 8.457-8.668.675-1.922.769-3.938.423-5.933-.155-.9-1.26-1.405-2.079-1.181-.952.262-1.337 1.177-1.18 2.079.57 3.294-1.184 6.507-3.605 8.624-2.843 2.486-6.761 3.122-10.416 2.75-3.492-.355-7.624-1.778-10.835-4.138 1.752-.565 3.409-1.394 4.857-2.569 2.984-2.422 4.366-6.21 3.757-9.988-.611-3.79-3.659-6.7-7.543-6.832-4.058-.137-7.703 2.583-9.104 6.304-1.327 3.526-.572 7.44 1.294 10.621-.413-.012-.824-.034-1.231-.068-6.122-.506-12.019-3.776-15.172-9.01 2.497-.431 4.896-1.383 6.936-2.932 3.37-2.558 5.803-6.679 5.005-11.02-.699-3.804-4.009-7.222-7.989-7.339-4.384-.129-7.585 3.684-8.89 7.5-1.143 3.344-1.057 7.114-.095 10.537-2.057-.314-4.045-1.07-5.866-2.206-3.387-2.113-6.275-4.916-9.814-6.802-6.964-3.71-15.313-4.764-22.964-2.796-7.094 1.825-13.357 6.228-17.702 12.091-1.044 1.408-1.951 2.905-2.734 4.472C876.63 680.997 879.545 682.711 880.519 680.762zM964.589 673.195c2.814-.608 5.108 1.241 5.577 3.984.501 2.926-.938 5.719-3.367 7.321-1.47.97-3.123 1.555-4.837 1.863-1.42-1.765-2.333-3.842-2.409-6.209C959.446 676.876 961.273 673.911 964.589 673.195zM940.288 663.995c1.13-2.612 3.892-5.45 6.954-3.944 2.921 1.437 3.844 5.025 2.63 7.892-1.398 3.302-4.736 5.408-8.118 6.186-.508.117-1.017.199-1.524.255-.009-.026-.021-.049-.029-.075C939.108 671.037 938.892 667.22 940.288 663.995z" class="colorD3CCFF svgShape"></path><path fill="#ffbde9" d="M645.738 180.086c.57.921.752 2.032.485 3.125-.353 1.443-1.415 2.554-2.841 2.97l-13.77 4.016c-1.427.416-2.919.051-3.993-.976-1.072-1.027-1.503-2.503-1.15-3.945l3.407-13.933c.353-1.444 1.415-2.554 2.842-2.969 1.426-.416 2.919-.051 3.992.977l10.363 9.917C645.333 179.516 645.556 179.791 645.738 180.086zM627.716 186.703c.05.081.105.141.144.178.109.104.41.333.845.206l13.77-4.016c.435-.127.565-.482.601-.628.036-.146.084-.52-.243-.834l-10.363-9.917c-.327-.314-.7-.249-.844-.206-.145.042-.493.188-.601.628l-3.407 13.933C627.547 186.331 627.624 186.553 627.716 186.703zM119.473 262.228c-.735.796-1.756 1.269-2.881 1.305-1.485.047-2.839-.679-3.622-1.942l-7.558-12.191c-.783-1.263-.831-2.799-.129-4.108.703-1.308 2.009-2.119 3.493-2.165l14.336-.45c1.485-.047 2.84.68 3.622 1.942.783 1.263.831 2.798.128 4.108l-6.778 12.641C119.914 261.685 119.709 261.973 119.473 262.228zM108.271 246.637c-.065.07-.108.139-.133.186-.072.133-.212.484.028.869l7.558 12.191c.239.385.616.415.767.411.15-.004.523-.058.738-.458l6.778-12.641c.215-.4.052-.741-.027-.869-.08-.128-.313-.425-.766-.411l-14.336.45C108.584 246.374 108.39 246.508 108.271 246.637zM1090.532 655.734c.357 1.023.293 2.147-.205 3.156-.658 1.332-1.936 2.185-3.419 2.282l-14.314.929c-1.483.096-2.861-.584-3.685-1.82-.823-1.236-.924-2.77-.266-4.101l6.352-12.86c.658-1.333 1.936-2.185 3.419-2.281 1.483-.096 2.86.584 3.684 1.82l7.961 11.931C1090.261 655.089 1090.418 655.406 1090.532 655.734zM1071.504 658.277c.031.09.072.161.101.205.083.126.328.415.78.385l14.313-.929c.452-.03.657-.348.724-.483.067-.135.195-.489-.056-.867l-7.962-11.932c-.251-.377-.629-.395-.779-.385-.151.01-.523.076-.724.482l-6.352 12.86C1071.419 657.878 1071.446 658.111 1071.504 658.277zM1250.349 217.257c-.746.786-1.774 1.244-2.899 1.263-1.485.025-2.829-.72-3.594-1.994l-7.382-12.298c-.765-1.274-.791-2.81-.07-4.11.721-1.298 2.039-2.09 3.524-2.115l14.341-.244c1.486-.026 2.83.72 3.594 1.994.765 1.274.791 2.81.069 4.109l-6.959 12.542C1250.797 216.721 1250.588 217.006 1250.349 217.257zM1239.372 201.508c-.066.069-.11.138-.135.184-.073.132-.219.481.015.869l7.382 12.298c.234.388.61.424.761.422.15-.002.524-.05.745-.447l6.959-12.543c.22-.396.063-.74-.015-.869-.078-.13-.307-.43-.76-.422l-14.341.244C1239.688 201.249 1239.493 201.38 1239.372 201.508zM430.62 700.198c-.976.47-2.1.534-3.159.153-1.398-.503-2.39-1.677-2.653-3.139l-2.54-14.117c-.263-1.463.258-2.908 1.392-3.867 1.135-.958 2.648-1.23 4.045-.727l13.496 4.859c1.398.503 2.39 1.677 2.653 3.139.263 1.462-.258 2.908-1.393 3.866l-10.956 9.258C431.23 699.856 430.932 700.048 430.62 700.198zM425.944 681.579c-.086.041-.151.09-.192.124-.115.097-.375.372-.294.818l2.539 14.117c.081.446.42.613.561.664.141.051.508.139.855-.154l10.956-9.258c.347-.293.322-.67.295-.818-.027-.149-.135-.511-.561-.665l-13.496-4.859C426.331 681.449 426.102 681.502 425.944 681.579z" class="colorFFBDE9 svgShape"></path><circle cx="1025.855" cy="654.62" r="8.635" fill="#e5e0ff" class="colorE5E0FF svgShape"></circle><circle cx="1034.49" cy="308.013" r="8.635" fill="#e5e0ff" transform="rotate(-22.606 1034.567 308.013)" class="colorE5E0FF svgShape"></circle><circle cx="1290.711" cy="257.456" r="8.635" fill="#e5e0ff" class="colorE5E0FF svgShape"></circle><circle cx="767.763" cy="145.387" r="8.635" fill="#e5e0ff" class="colorE5E0FF svgShape"></circle><circle cx="537.878" cy="145.387" r="8.635" fill="#e5e0ff" class="colorE5E0FF svgShape"></circle><circle cx="439.751" cy="287.785" r="8.635" fill="#e5e0ff" class="colorE5E0FF svgShape"></circle><circle cx="186.297" cy="216.538" r="8.635" fill="#e5e0ff" class="colorE5E0FF svgShape"></circle><circle cx="226.555" cy="656.258" r="8.635" fill="#e5e0ff" transform="rotate(-22.606 226.584 656.298)" class="colorE5E0FF svgShape"></circle><circle cx="509.223" cy="681.488" r="8.635" fill="#e5e0ff" class="colorE5E0FF svgShape"></circle></svg>