<svg xmlns="http://www.w3.org/2000/svg" xmlns:xlink="http://www.w3.org/1999/xlink" width="99" zoomAndPan="magnify" viewBox="0 0 74.25 83.249999" height="111" preserveAspectRatio="xMidYMid meet" version="1.0"><defs><g/><clipPath id="6d8d8af2d8"><path d="M 0.015625 0.0703125 L 63.867188 0.0703125 L 63.867188 64.152344 L 0.015625 64.152344 Z M 0.015625 0.0703125 " clip-rule="nonzero"/></clipPath><clipPath id="bacbcade99"><path d="M 24.667969 59.375 L 61.597656 59.375 L 61.597656 81.746094 L 24.667969 81.746094 Z M 24.667969 59.375 " clip-rule="nonzero"/></clipPath></defs><g clip-path="url(#6d8d8af2d8)"><path fill="#6a7bf0" d="M 21.097656 58.117188 C 12.855469 53.460938 7.292969 44.621094 7.292969 34.480469 C 7.292969 19.496094 19.441406 7.351562 34.425781 7.351562 C 42.707031 7.351562 50.121094 11.0625 55.097656 16.910156 L 64.015625 16.910156 C 58.015625 6.828125 47.007812 0.0703125 34.425781 0.0703125 C 15.421875 0.0703125 0.015625 15.476562 0.015625 34.480469 C 0.015625 47.082031 6.785156 58.097656 16.886719 64.09375 L 21.097656 58.117188 " fill-opacity="1" fill-rule="nonzero"/></g><g clip-path="url(#bacbcade99)"><path fill="#6a7bf0" d="M 42.464844 60.402344 C 42.164062 60.496094 41.859375 60.582031 41.554688 60.667969 L 24.707031 67.5 C 25.855469 67.835938 27.03125 68.117188 28.226562 68.335938 L 61.554688 81.855469 L 45.765625 59.445312 C 44.6875 59.835938 43.585938 60.15625 42.464844 60.402344 " fill-opacity="1" fill-rule="nonzero"/></g><path fill="#364253" d="M 36.980469 53.046875 C 46.796875 53.046875 54.753906 45.089844 54.753906 35.273438 C 54.753906 25.460938 46.796875 17.503906 36.980469 17.503906 C 31.558594 17.503906 26.703125 19.9375 23.441406 23.765625 L 17.601562 23.765625 C 21.53125 17.164062 28.738281 12.738281 36.980469 12.738281 C 49.429688 12.738281 59.519531 22.828125 59.519531 35.273438 C 59.519531 46.335938 51.550781 55.535156 41.042969 57.449219 L 19.210938 66.304688 L 29.664062 51.472656 C 31.894531 52.484375 34.371094 53.046875 36.980469 53.046875 " fill-opacity="1" fill-rule="nonzero"/><path fill="#6a7bf0" d="M 30.230469 34.484375 C 30.230469 36.09375 28.921875 37.402344 27.3125 37.402344 C 25.699219 37.402344 24.390625 36.09375 24.390625 34.484375 C 24.390625 32.871094 25.699219 31.5625 27.3125 31.5625 C 28.921875 31.5625 30.230469 32.871094 30.230469 34.484375 " fill-opacity="1" fill-rule="nonzero"/><path fill="#6a7bf0" d="M 39.027344 34.484375 C 39.027344 36.09375 37.71875 37.402344 36.105469 37.402344 C 34.492188 37.402344 33.183594 36.09375 33.183594 34.484375 C 33.183594 32.871094 34.492188 31.5625 36.105469 31.5625 C 37.71875 31.5625 39.027344 32.871094 39.027344 34.484375 " fill-opacity="1" fill-rule="nonzero"/><path fill="#6a7bf0" d="M 47.824219 34.484375 C 47.824219 36.09375 46.515625 37.402344 44.902344 37.402344 C 43.289062 37.402344 41.980469 36.09375 41.980469 34.484375 C 41.980469 32.871094 43.289062 31.5625 44.902344 31.5625 C 46.515625 31.5625 47.824219 32.871094 47.824219 34.484375 " fill-opacity="1" fill-rule="nonzero"/><g fill="#ffffff" fill-opacity="1"><g transform="translate(58.254787, 59.476476)"><g><path d="M 1.546875 -3.078125 C 1.671875 -3.273438 1.832031 -3.429688 2.03125 -3.546875 C 2.226562 -3.671875 2.453125 -3.734375 2.703125 -3.734375 L 2.703125 -2.53125 L 2.390625 -2.53125 C 2.109375 -2.53125 1.894531 -2.46875 1.75 -2.34375 C 1.613281 -2.226562 1.546875 -2.019531 1.546875 -1.71875 L 1.546875 0 L 0.40625 0 L 0.40625 -3.6875 L 1.546875 -3.6875 Z M 1.546875 -3.078125 "/></g></g></g></svg>