<svg xmlns="http://www.w3.org/2000/svg" xmlns:xlink="http://www.w3.org/1999/xlink" width="440" zoomAndPan="magnify" viewBox="0 0 330 86.249997" height="115" preserveAspectRatio="xMidYMid meet" version="1.0"><defs><g/><clipPath id="b286f42e15"><path d="M 1.421875 0 L 328.578125 0 L 328.578125 85.507812 L 1.421875 85.507812 Z M 1.421875 0 " clip-rule="nonzero"/></clipPath><clipPath id="71ea9c5c07"><path d="M 2.574219 16.886719 L 56.109375 16.886719 L 56.109375 70.625 L 2.574219 70.625 Z M 2.574219 16.886719 " clip-rule="nonzero"/></clipPath><clipPath id="55c2247e45"><path d="M 23.25 66.617188 L 54.21875 66.617188 L 54.21875 85.285156 L 23.25 85.285156 Z M 23.25 66.617188 " clip-rule="nonzero"/></clipPath></defs><g clip-path="url(#b286f42e15)"><path fill="#ffffff" d="M 1.421875 0 L 328.578125 0 L 328.578125 85.507812 L 1.421875 85.507812 Z M 1.421875 0 " fill-opacity="1" fill-rule="nonzero"/></g><g clip-path="url(#71ea9c5c07)"><path fill="#6a7bf0" d="M 20.253906 65.5625 C 13.34375 61.660156 8.679688 54.246094 8.679688 45.742188 C 8.679688 33.179688 18.867188 22.992188 31.433594 22.992188 C 38.375 22.992188 44.59375 26.105469 48.765625 31.007812 L 56.246094 31.007812 C 51.214844 22.554688 41.984375 16.886719 31.433594 16.886719 C 15.496094 16.886719 2.574219 29.808594 2.574219 45.742188 C 2.574219 56.308594 8.253906 65.546875 16.726562 70.574219 L 20.253906 65.5625 " fill-opacity="1" fill-rule="nonzero"/></g><g clip-path="url(#55c2247e45)"><path fill="#6a7bf0" d="M 38.171875 67.480469 C 37.921875 67.558594 37.667969 67.632812 37.410156 67.699219 L 23.285156 73.429688 C 24.246094 73.714844 25.230469 73.949219 26.234375 74.132812 L 54.183594 85.46875 L 40.941406 66.675781 C 40.039062 67.003906 39.117188 67.273438 38.171875 67.480469 " fill-opacity="1" fill-rule="nonzero"/></g><path fill="#364253" d="M 33.578125 61.3125 C 41.808594 61.3125 48.480469 54.640625 48.480469 46.410156 C 48.480469 38.179688 41.808594 31.507812 33.578125 31.507812 C 29.027344 31.507812 24.957031 33.546875 22.222656 36.757812 L 17.324219 36.757812 C 20.617188 31.21875 26.664062 27.507812 33.578125 27.507812 C 44.015625 27.507812 52.476562 35.96875 52.476562 46.410156 C 52.476562 55.683594 45.796875 63.398438 36.980469 65.003906 L 18.675781 72.429688 L 27.4375 59.992188 C 29.308594 60.839844 31.386719 61.3125 33.578125 61.3125 " fill-opacity="1" fill-rule="nonzero"/><path fill="#6a7bf0" d="M 27.914062 45.742188 C 27.914062 47.097656 26.820312 48.191406 25.464844 48.191406 C 24.113281 48.191406 23.015625 47.097656 23.015625 45.742188 C 23.015625 44.390625 24.113281 43.292969 25.464844 43.292969 C 26.820312 43.292969 27.914062 44.390625 27.914062 45.742188 " fill-opacity="1" fill-rule="nonzero"/><path fill="#6a7bf0" d="M 35.292969 45.742188 C 35.292969 47.097656 34.195312 48.191406 32.84375 48.191406 C 31.488281 48.191406 30.394531 47.097656 30.394531 45.742188 C 30.394531 44.390625 31.488281 43.292969 32.84375 43.292969 C 34.195312 43.292969 35.292969 44.390625 35.292969 45.742188 " fill-opacity="1" fill-rule="nonzero"/><path fill="#6a7bf0" d="M 42.667969 45.742188 C 42.667969 47.097656 41.570312 48.191406 40.21875 48.191406 C 38.863281 48.191406 37.769531 47.097656 37.769531 45.742188 C 37.769531 44.390625 38.863281 43.292969 40.21875 43.292969 C 41.570312 43.292969 42.667969 44.390625 42.667969 45.742188 " fill-opacity="1" fill-rule="nonzero"/><g fill="#364253" fill-opacity="1"><g transform="translate(61.874362, 53.545279)"><g><path d="M 18.921875 -25.59375 L 18.921875 -20.609375 L 8.5 -20.609375 L 8.5 -15.203125 L 16.296875 -15.203125 L 16.296875 -10.359375 L 8.5 -10.359375 L 8.5 0 L 2.265625 0 L 2.265625 -25.59375 Z M 18.921875 -25.59375 "/></g></g></g><g fill="#364253" fill-opacity="1"><g transform="translate(83.062163, 53.545279)"><g><path d="M 11.53125 0.296875 C 9.53125 0.296875 7.734375 -0.128906 6.140625 -0.984375 C 4.546875 -1.835938 3.289062 -3.050781 2.375 -4.625 C 1.46875 -6.207031 1.015625 -8.054688 1.015625 -10.171875 C 1.015625 -12.265625 1.476562 -14.109375 2.40625 -15.703125 C 3.332031 -17.296875 4.597656 -18.515625 6.203125 -19.359375 C 7.804688 -20.210938 9.601562 -20.640625 11.59375 -20.640625 C 13.59375 -20.640625 15.394531 -20.210938 17 -19.359375 C 18.601562 -18.515625 19.863281 -17.296875 20.78125 -15.703125 C 21.707031 -14.109375 22.171875 -12.265625 22.171875 -10.171875 C 22.171875 -8.078125 21.703125 -6.234375 20.765625 -4.640625 C 19.828125 -3.054688 18.550781 -1.835938 16.9375 -0.984375 C 15.320312 -0.128906 13.519531 0.296875 11.53125 0.296875 Z M 11.53125 -5.109375 C 12.71875 -5.109375 13.726562 -5.546875 14.5625 -6.421875 C 15.40625 -7.296875 15.828125 -8.546875 15.828125 -10.171875 C 15.828125 -11.804688 15.421875 -13.0625 14.609375 -13.9375 C 13.796875 -14.8125 12.789062 -15.25 11.59375 -15.25 C 10.382812 -15.25 9.375 -14.816406 8.5625 -13.953125 C 7.757812 -13.085938 7.359375 -11.828125 7.359375 -10.171875 C 7.359375 -8.546875 7.753906 -7.296875 8.546875 -6.421875 C 9.335938 -5.546875 10.332031 -5.109375 11.53125 -5.109375 Z M 11.53125 -5.109375 "/></g></g></g><g fill="#364253" fill-opacity="1"><g transform="translate(107.532038, 53.545279)"><g><path d="M 8.5 -16.953125 C 9.226562 -18.078125 10.140625 -18.957031 11.234375 -19.59375 C 12.328125 -20.238281 13.539062 -20.5625 14.875 -20.5625 L 14.875 -13.96875 L 13.171875 -13.96875 C 11.609375 -13.96875 10.4375 -13.632812 9.65625 -12.96875 C 8.882812 -12.300781 8.5 -11.128906 8.5 -9.453125 L 8.5 0 L 2.265625 0 L 2.265625 -20.34375 L 8.5 -20.34375 Z M 8.5 -16.953125 "/></g></g></g><g fill="#364253" fill-opacity="1"><g transform="translate(124.380224, 53.545279)"><g><path d="M 22.359375 -20.34375 L 22.359375 0 L 16.125 0 L 16.125 -2.765625 C 15.488281 -1.867188 14.628906 -1.144531 13.546875 -0.59375 C 12.460938 -0.0507812 11.265625 0.21875 9.953125 0.21875 C 8.398438 0.21875 7.023438 -0.125 5.828125 -0.8125 C 4.640625 -1.507812 3.71875 -2.515625 3.0625 -3.828125 C 2.40625 -5.140625 2.078125 -6.679688 2.078125 -8.453125 L 2.078125 -20.34375 L 8.28125 -20.34375 L 8.28125 -9.296875 C 8.28125 -7.929688 8.628906 -6.875 9.328125 -6.125 C 10.035156 -5.375 10.988281 -5 12.1875 -5 C 13.394531 -5 14.351562 -5.375 15.0625 -6.125 C 15.769531 -6.875 16.125 -7.929688 16.125 -9.296875 L 16.125 -20.34375 Z M 22.359375 -20.34375 "/></g></g></g><g fill="#364253" fill-opacity="1"><g transform="translate(150.199394, 53.545279)"><g><path d="M 28.234375 -20.5625 C 30.753906 -20.5625 32.757812 -19.796875 34.25 -18.265625 C 35.75 -16.734375 36.5 -14.609375 36.5 -11.890625 L 36.5 0 L 30.3125 0 L 30.3125 -11.046875 C 30.3125 -12.359375 29.960938 -13.375 29.265625 -14.09375 C 28.578125 -14.8125 27.625 -15.171875 26.40625 -15.171875 C 25.1875 -15.171875 24.226562 -14.8125 23.53125 -14.09375 C 22.84375 -13.375 22.5 -12.359375 22.5 -11.046875 L 22.5 0 L 16.296875 0 L 16.296875 -11.046875 C 16.296875 -12.359375 15.945312 -13.375 15.25 -14.09375 C 14.5625 -14.8125 13.613281 -15.171875 12.40625 -15.171875 C 11.1875 -15.171875 10.226562 -14.8125 9.53125 -14.09375 C 8.84375 -13.375 8.5 -12.359375 8.5 -11.046875 L 8.5 0 L 2.265625 0 L 2.265625 -20.34375 L 8.5 -20.34375 L 8.5 -17.796875 C 9.132812 -18.648438 9.960938 -19.320312 10.984375 -19.8125 C 12.003906 -20.3125 13.15625 -20.5625 14.4375 -20.5625 C 15.96875 -20.5625 17.332031 -20.234375 18.53125 -19.578125 C 19.738281 -18.921875 20.6875 -17.988281 21.375 -16.78125 C 22.070312 -17.894531 23.03125 -18.800781 24.25 -19.5 C 25.46875 -20.207031 26.796875 -20.5625 28.234375 -20.5625 Z M 28.234375 -20.5625 "/></g></g></g><g fill="#6a7bf0" fill-opacity="1"><g transform="translate(190.061213, 53.545279)"><g><path d="M 24.4375 -25.59375 L 24.4375 0 L 18.203125 0 L 18.203125 -10.546875 L 8.5 -10.546875 L 8.5 0 L 2.265625 0 L 2.265625 -25.59375 L 8.5 -25.59375 L 8.5 -15.578125 L 18.203125 -15.578125 L 18.203125 -25.59375 Z M 24.4375 -25.59375 "/></g></g></g><g fill="#6a7bf0" fill-opacity="1"><g transform="translate(217.959019, 53.545279)"><g><path d="M 22.359375 -20.34375 L 22.359375 0 L 16.125 0 L 16.125 -2.765625 C 15.488281 -1.867188 14.628906 -1.144531 13.546875 -0.59375 C 12.460938 -0.0507812 11.265625 0.21875 9.953125 0.21875 C 8.398438 0.21875 7.023438 -0.125 5.828125 -0.8125 C 4.640625 -1.507812 3.71875 -2.515625 3.0625 -3.828125 C 2.40625 -5.140625 2.078125 -6.679688 2.078125 -8.453125 L 2.078125 -20.34375 L 8.28125 -20.34375 L 8.28125 -9.296875 C 8.28125 -7.929688 8.628906 -6.875 9.328125 -6.125 C 10.035156 -5.375 10.988281 -5 12.1875 -5 C 13.394531 -5 14.351562 -5.375 15.0625 -6.125 C 15.769531 -6.875 16.125 -7.929688 16.125 -9.296875 L 16.125 -20.34375 Z M 22.359375 -20.34375 "/></g></g></g><g fill="#6a7bf0" fill-opacity="1"><g transform="translate(243.778187, 53.545279)"><g><path d="M 8.5 -17.46875 C 9.082031 -18.414062 9.921875 -19.179688 11.015625 -19.765625 C 12.109375 -20.347656 13.359375 -20.640625 14.765625 -20.640625 C 16.441406 -20.640625 17.960938 -20.210938 19.328125 -19.359375 C 20.691406 -18.515625 21.765625 -17.300781 22.546875 -15.71875 C 23.335938 -14.132812 23.734375 -12.300781 23.734375 -10.21875 C 23.734375 -8.125 23.335938 -6.28125 22.546875 -4.6875 C 21.765625 -3.09375 20.691406 -1.863281 19.328125 -1 C 17.960938 -0.132812 16.441406 0.296875 14.765625 0.296875 C 13.335938 0.296875 12.085938 0.0078125 11.015625 -0.5625 C 9.941406 -1.132812 9.101562 -1.894531 8.5 -2.84375 L 8.5 0 L 2.265625 0 L 2.265625 -26.984375 L 8.5 -26.984375 Z M 17.390625 -10.21875 C 17.390625 -11.769531 16.957031 -12.988281 16.09375 -13.875 C 15.238281 -14.757812 14.175781 -15.203125 12.90625 -15.203125 C 11.664062 -15.203125 10.613281 -14.753906 9.75 -13.859375 C 8.882812 -12.960938 8.453125 -11.734375 8.453125 -10.171875 C 8.453125 -8.617188 8.882812 -7.390625 9.75 -6.484375 C 10.613281 -5.585938 11.664062 -5.140625 12.90625 -5.140625 C 14.144531 -5.140625 15.203125 -5.59375 16.078125 -6.5 C 16.953125 -7.414062 17.390625 -8.65625 17.390625 -10.21875 Z M 17.390625 -10.21875 "/></g></g></g><g fill="#6a7bf0" fill-opacity="1"><g transform="translate(66.001159, 75.062289)"><g><path d="M 3.609375 0.0625 C 3.003906 0.0625 2.457031 -0.0664062 1.96875 -0.328125 C 1.488281 -0.597656 1.109375 -0.96875 0.828125 -1.4375 C 0.554688 -1.90625 0.421875 -2.4375 0.421875 -3.03125 C 0.421875 -3.613281 0.554688 -4.140625 0.828125 -4.609375 C 1.109375 -5.078125 1.492188 -5.445312 1.984375 -5.71875 C 2.472656 -5.988281 3.019531 -6.125 3.625 -6.125 C 4.09375 -6.125 4.519531 -6.039062 4.90625 -5.875 C 5.300781 -5.71875 5.640625 -5.484375 5.921875 -5.171875 L 5.359375 -4.625 C 4.898438 -5.101562 4.332031 -5.34375 3.65625 -5.34375 C 3.207031 -5.34375 2.800781 -5.242188 2.4375 -5.046875 C 2.070312 -4.847656 1.785156 -4.570312 1.578125 -4.21875 C 1.378906 -3.863281 1.28125 -3.46875 1.28125 -3.03125 C 1.28125 -2.59375 1.378906 -2.195312 1.578125 -1.84375 C 1.785156 -1.488281 2.070312 -1.207031 2.4375 -1 C 2.800781 -0.800781 3.207031 -0.703125 3.65625 -0.703125 C 4.332031 -0.703125 4.898438 -0.941406 5.359375 -1.421875 L 5.921875 -0.875 C 5.640625 -0.570312 5.300781 -0.335938 4.90625 -0.171875 C 4.507812 -0.015625 4.078125 0.0625 3.609375 0.0625 Z M 3.609375 0.0625 "/></g></g></g><g fill="#6a7bf0" fill-opacity="1"><g transform="translate(73.378715, 75.062289)"><g><path d="M 3.640625 0.0625 C 3.023438 0.0625 2.472656 -0.0664062 1.984375 -0.328125 C 1.492188 -0.597656 1.109375 -0.96875 0.828125 -1.4375 C 0.554688 -1.914062 0.421875 -2.445312 0.421875 -3.03125 C 0.421875 -3.601562 0.554688 -4.125 0.828125 -4.59375 C 1.109375 -5.070312 1.492188 -5.445312 1.984375 -5.71875 C 2.472656 -5.988281 3.023438 -6.125 3.640625 -6.125 C 4.242188 -6.125 4.789062 -5.988281 5.28125 -5.71875 C 5.769531 -5.445312 6.148438 -5.078125 6.421875 -4.609375 C 6.703125 -4.140625 6.84375 -3.613281 6.84375 -3.03125 C 6.84375 -2.4375 6.703125 -1.90625 6.421875 -1.4375 C 6.148438 -0.96875 5.769531 -0.597656 5.28125 -0.328125 C 4.789062 -0.0664062 4.242188 0.0625 3.640625 0.0625 Z M 3.640625 -0.703125 C 4.078125 -0.703125 4.472656 -0.800781 4.828125 -1 C 5.179688 -1.207031 5.460938 -1.488281 5.671875 -1.84375 C 5.878906 -2.195312 5.984375 -2.59375 5.984375 -3.03125 C 5.984375 -3.46875 5.878906 -3.863281 5.671875 -4.21875 C 5.460938 -4.570312 5.179688 -4.847656 4.828125 -5.046875 C 4.472656 -5.242188 4.078125 -5.34375 3.640625 -5.34375 C 3.191406 -5.34375 2.785156 -5.242188 2.421875 -5.046875 C 2.066406 -4.847656 1.785156 -4.570312 1.578125 -4.21875 C 1.378906 -3.863281 1.28125 -3.46875 1.28125 -3.03125 C 1.28125 -2.59375 1.378906 -2.195312 1.578125 -1.84375 C 1.785156 -1.488281 2.066406 -1.207031 2.421875 -1 C 2.785156 -0.800781 3.191406 -0.703125 3.640625 -0.703125 Z M 3.640625 -0.703125 "/></g></g></g><g fill="#6a7bf0" fill-opacity="1"><g transform="translate(81.767024, 75.062289)"><g><path d="M 6.515625 0 L 6.5 -4.40625 L 4.3125 -0.734375 L 3.921875 -0.734375 L 1.734375 -4.375 L 1.734375 0 L 0.90625 0 L 0.90625 -6.046875 L 1.609375 -6.046875 L 4.140625 -1.796875 L 6.625 -6.046875 L 7.328125 -6.046875 L 7.34375 0 Z M 6.515625 0 "/></g></g></g><g fill="#6a7bf0" fill-opacity="1"><g transform="translate(91.148797, 75.062289)"><g><path d="M 6.515625 0 L 6.5 -4.40625 L 4.3125 -0.734375 L 3.921875 -0.734375 L 1.734375 -4.375 L 1.734375 0 L 0.90625 0 L 0.90625 -6.046875 L 1.609375 -6.046875 L 4.140625 -1.796875 L 6.625 -6.046875 L 7.328125 -6.046875 L 7.34375 0 Z M 6.515625 0 "/></g></g></g><g fill="#6a7bf0" fill-opacity="1"><g transform="translate(100.530568, 75.062289)"><g><path d="M 3.40625 0.0625 C 2.601562 0.0625 1.976562 -0.164062 1.53125 -0.625 C 1.082031 -1.082031 0.859375 -1.742188 0.859375 -2.609375 L 0.859375 -6.046875 L 1.71875 -6.046875 L 1.71875 -2.640625 C 1.71875 -1.347656 2.285156 -0.703125 3.421875 -0.703125 C 3.972656 -0.703125 4.394531 -0.859375 4.6875 -1.171875 C 4.976562 -1.492188 5.125 -1.984375 5.125 -2.640625 L 5.125 -6.046875 L 5.96875 -6.046875 L 5.96875 -2.609375 C 5.96875 -1.742188 5.742188 -1.082031 5.296875 -0.625 C 4.847656 -0.164062 4.21875 0.0625 3.40625 0.0625 Z M 3.40625 0.0625 "/></g></g></g><g fill="#6a7bf0" fill-opacity="1"><g transform="translate(108.495566, 75.062289)"><g><path d="M 6.109375 -6.046875 L 6.109375 0 L 5.40625 0 L 1.765625 -4.515625 L 1.765625 0 L 0.90625 0 L 0.90625 -6.046875 L 1.609375 -6.046875 L 5.25 -1.53125 L 5.25 -6.046875 Z M 6.109375 -6.046875 "/></g></g></g><g fill="#6a7bf0" fill-opacity="1"><g transform="translate(116.641978, 75.062289)"><g><path d="M 0.90625 -6.046875 L 1.765625 -6.046875 L 1.765625 0 L 0.90625 0 Z M 0.90625 -6.046875 "/></g></g></g><g fill="#6a7bf0" fill-opacity="1"><g transform="translate(120.4517, 75.062289)"><g><path d="M 2.109375 -5.296875 L 0.03125 -5.296875 L 0.03125 -6.046875 L 5.03125 -6.046875 L 5.03125 -5.296875 L 2.96875 -5.296875 L 2.96875 0 L 2.109375 0 Z M 2.109375 -5.296875 "/></g></g></g><g fill="#6a7bf0" fill-opacity="1"><g transform="translate(126.654379, 75.062289)"><g><path d="M 3.21875 -2.09375 L 3.21875 0 L 2.375 0 L 2.375 -2.109375 L -0.03125 -6.046875 L 0.890625 -6.046875 L 2.828125 -2.859375 L 4.765625 -6.046875 L 5.625 -6.046875 Z M 3.21875 -2.09375 "/></g></g></g><g fill="#6a7bf0" fill-opacity="1"><g transform="translate(133.375384, 75.062289)"><g/></g></g><g fill="#6a7bf0" fill-opacity="1"><g transform="translate(136.830914, 75.062289)"><g><path d="M 3.609375 0.0625 C 3.003906 0.0625 2.457031 -0.0664062 1.96875 -0.328125 C 1.488281 -0.597656 1.109375 -0.96875 0.828125 -1.4375 C 0.554688 -1.90625 0.421875 -2.4375 0.421875 -3.03125 C 0.421875 -3.613281 0.554688 -4.140625 0.828125 -4.609375 C 1.109375 -5.078125 1.492188 -5.445312 1.984375 -5.71875 C 2.472656 -5.988281 3.019531 -6.125 3.625 -6.125 C 4.09375 -6.125 4.519531 -6.039062 4.90625 -5.875 C 5.300781 -5.71875 5.640625 -5.484375 5.921875 -5.171875 L 5.359375 -4.625 C 4.898438 -5.101562 4.332031 -5.34375 3.65625 -5.34375 C 3.207031 -5.34375 2.800781 -5.242188 2.4375 -5.046875 C 2.070312 -4.847656 1.785156 -4.570312 1.578125 -4.21875 C 1.378906 -3.863281 1.28125 -3.46875 1.28125 -3.03125 C 1.28125 -2.59375 1.378906 -2.195312 1.578125 -1.84375 C 1.785156 -1.488281 2.070312 -1.207031 2.4375 -1 C 2.800781 -0.800781 3.207031 -0.703125 3.65625 -0.703125 C 4.332031 -0.703125 4.898438 -0.941406 5.359375 -1.421875 L 5.921875 -0.875 C 5.640625 -0.570312 5.300781 -0.335938 4.90625 -0.171875 C 4.507812 -0.015625 4.078125 0.0625 3.609375 0.0625 Z M 3.609375 0.0625 "/></g></g></g><g fill="#6a7bf0" fill-opacity="1"><g transform="translate(144.208469, 75.062289)"><g><path d="M 0.90625 -6.046875 L 1.765625 -6.046875 L 1.765625 -0.75 L 5.046875 -0.75 L 5.046875 0 L 0.90625 0 Z M 0.90625 -6.046875 "/></g></g></g><g fill="#6a7bf0" fill-opacity="1"><g transform="translate(150.471618, 75.062289)"><g><path d="M 3.40625 0.0625 C 2.601562 0.0625 1.976562 -0.164062 1.53125 -0.625 C 1.082031 -1.082031 0.859375 -1.742188 0.859375 -2.609375 L 0.859375 -6.046875 L 1.71875 -6.046875 L 1.71875 -2.640625 C 1.71875 -1.347656 2.285156 -0.703125 3.421875 -0.703125 C 3.972656 -0.703125 4.394531 -0.859375 4.6875 -1.171875 C 4.976562 -1.492188 5.125 -1.984375 5.125 -2.640625 L 5.125 -6.046875 L 5.96875 -6.046875 L 5.96875 -2.609375 C 5.96875 -1.742188 5.742188 -1.082031 5.296875 -0.625 C 4.847656 -0.164062 4.21875 0.0625 3.40625 0.0625 Z M 3.40625 0.0625 "/></g></g></g><g fill="#6a7bf0" fill-opacity="1"><g transform="translate(158.436617, 75.062289)"><g><path d="M 4.984375 -3.140625 C 5.328125 -3.035156 5.597656 -2.851562 5.796875 -2.59375 C 6.003906 -2.34375 6.109375 -2.023438 6.109375 -1.640625 C 6.109375 -1.109375 5.910156 -0.703125 5.515625 -0.421875 C 5.117188 -0.140625 4.546875 0 3.796875 0 L 0.90625 0 L 0.90625 -6.046875 L 3.625 -6.046875 C 4.3125 -6.046875 4.84375 -5.90625 5.21875 -5.625 C 5.601562 -5.351562 5.796875 -4.972656 5.796875 -4.484375 C 5.796875 -4.171875 5.71875 -3.894531 5.5625 -3.65625 C 5.414062 -3.425781 5.222656 -3.253906 4.984375 -3.140625 Z M 1.765625 -5.34375 L 1.765625 -3.40625 L 3.546875 -3.40625 C 3.984375 -3.40625 4.320312 -3.488281 4.5625 -3.65625 C 4.800781 -3.820312 4.921875 -4.0625 4.921875 -4.375 C 4.921875 -4.695312 4.800781 -4.9375 4.5625 -5.09375 C 4.320312 -5.257812 3.984375 -5.34375 3.546875 -5.34375 Z M 3.765625 -0.703125 C 4.253906 -0.703125 4.617188 -0.78125 4.859375 -0.9375 C 5.109375 -1.101562 5.234375 -1.359375 5.234375 -1.703125 C 5.234375 -2.378906 4.742188 -2.71875 3.765625 -2.71875 L 1.765625 -2.71875 L 1.765625 -0.703125 Z M 3.765625 -0.703125 "/></g></g></g></svg>